<svg xmlns="http://www.w3.org/2000/svg" viewBox="0 0 480 320" font-family="'Noto Sans TC','PingFang TC','Microsoft JhengHei',sans-serif"><rect width="480" height="320" rx="10" fill="#faf6ec"/><circle cx="200" cy="168" r="112" fill="none" stroke="#33291e" stroke-width="2.5"/><line x1="88" y1="168" x2="312" y2="168" stroke="#33291e" stroke-width="2.5"  stroke-linecap="round"/><line x1="245.6" y1="65.7" x2="88" y2="168" stroke="#33291e" stroke-width="2.5"  stroke-linecap="round"/><line x1="245.6" y1="65.7" x2="312" y2="168" stroke="#33291e" stroke-width="2.5"  stroke-linecap="round"/><circle cx="88" cy="168" r="3.4" fill="#33291e"/><circle cx="312" cy="168" r="3.4" fill="#33291e"/><circle cx="245.6" cy="65.7" r="3.4" fill="#33291e"/><circle cx="200" cy="168" r="3.4" fill="#33291e"/><text x="73" y="173" font-size="14" fill="#33291e" text-anchor="middle" font-weight="bold">A</text><text x="327" y="173" font-size="14" fill="#33291e" text-anchor="middle" font-weight="bold">B</text><text x="251.7" y="57" font-size="14" fill="#33291e" text-anchor="middle" font-weight="bold">C</text><text x="200" y="188" font-size="13" fill="#33291e" text-anchor="middle" font-weight="bold">O</text><polyline points="227.1,77.7 228.1,79.1 229.2,80.4 230.4,81.6 231.7,82.8 233.1,83.8 234.6,84.7 236.1,85.5 237.7,86.2 239.3,86.8 241,87.2 242.7,87.5 244.4,87.7 246.1,87.7 247.9,87.6 249.6,87.3 251.2,86.9 252.9,86.4 254.5,85.8 256.1,85 257.5,84.1" fill="none" stroke="#33291e" stroke-width="1.8" stroke-linejoin="round" stroke-linecap="round"/><text x="237.7" y="107.9" font-size="15" fill="#33291e" text-anchor="middle" font-weight="bold">?</text><text x="200" y="50" font-size="13" fill="#33291e" text-anchor="middle" font-weight="bold">AB 為直徑</text><text x="240" y="305" font-size="15" fill="#33291e" text-anchor="middle" font-weight="bold">直徑 AB 所對的圓周角</text></svg>
