<svg xmlns="http://www.w3.org/2000/svg" viewBox="0 0 480 320" font-family="'Noto Sans TC','PingFang TC','Microsoft JhengHei',sans-serif"><rect width="480" height="320" rx="10" fill="#faf6ec"/><circle cx="206" cy="150" r="104" fill="none" stroke="#33291e" stroke-width="2.5"/><line x1="110" y1="254" x2="302" y2="254" stroke="#33291e" stroke-width="2.5"  stroke-linecap="round"/><line x1="206" y1="254" x2="302.4" y2="111" stroke="#33291e" stroke-width="2.5"  stroke-linecap="round"/><line x1="115.9" y1="98" x2="206" y2="254" stroke="#33291e" stroke-width="2.5"  stroke-linecap="round"/><line x1="115.9" y1="98" x2="302.4" y2="111" stroke="#33291e" stroke-width="2.5"  stroke-linecap="round"/><circle cx="206" cy="254" r="3.4" fill="#33291e"/><circle cx="302.4" cy="111" r="3.4" fill="#33291e"/><circle cx="115.9" cy="98" r="3.4" fill="#33291e"/><text x="206" y="274" font-size="14" fill="#33291e" text-anchor="middle" font-weight="bold">T</text><text x="316.3" y="110.4" font-size="14" fill="#33291e" text-anchor="middle" font-weight="bold">A</text><text x="102.9" y="95.5" font-size="14" fill="#33291e" text-anchor="middle" font-weight="bold">C</text><polyline points="236,254 236,252.5 235.9,251.1 235.7,249.6 235.4,248.2 235.1,246.7 234.7,245.3 234.3,243.9 233.7,242.6 233.1,241.2 232.5,239.9 231.8,238.6 231,237.4 230.1,236.2 229.2,235 228.3,233.9 227.3,232.9 226.2,231.8 225.1,230.9 224,230 222.8,229.1" fill="none" stroke="#33291e" stroke-width="1.8" stroke-linejoin="round" stroke-linecap="round"/><text x="246" y="242" font-size="14" fill="#33291e" text-anchor="middle" font-weight="bold">35°</text><polyline points="125.9,115.3 126.8,114.8 127.6,114.3 128.4,113.7 129.1,113 129.8,112.4 130.5,111.7 131.2,111 131.8,110.2 132.4,109.4 132.9,108.6 133.4,107.8 133.8,106.9 134.3,106 134.6,105.1 135,104.2 135.2,103.2 135.5,102.3 135.7,101.3 135.8,100.4 135.9,99.4" fill="none" stroke="#33291e" stroke-width="1.8" stroke-linejoin="round" stroke-linecap="round"/><text x="144.8" y="121" font-size="15" fill="#33291e" text-anchor="middle" font-weight="bold">?</text><text x="240" y="305" font-size="15" fill="#33291e" text-anchor="middle" font-weight="bold">切線與弦所成的弦切角</text></svg>
