<svg xmlns="http://www.w3.org/2000/svg" viewBox="0 0 480 320" font-family="'Noto Sans TC','PingFang TC','Microsoft JhengHei',sans-serif"><rect width="480" height="320" rx="10" fill="#faf6ec"/><circle cx="200" cy="162" r="118" fill="none" stroke="#33291e" stroke-width="2.5"/><polygon points="112.3,83 282,77.1 287.7,241 102.2,228" fill="none" stroke="#33291e" stroke-width="2.5" stroke-linejoin="round"/><circle cx="112.3" cy="83" r="3.4" fill="#33291e"/><text x="100.4" y="77.3" font-size="14" fill="#33291e" text-anchor="middle" font-weight="bold">A</text><circle cx="282" cy="77.1" r="3.4" fill="#33291e"/><text x="293.1" y="70.6" font-size="14" fill="#33291e" text-anchor="middle" font-weight="bold">B</text><circle cx="287.7" cy="241" r="3.4" fill="#33291e"/><text x="299.6" y="256.7" font-size="14" fill="#33291e" text-anchor="middle" font-weight="bold">C</text><circle cx="102.2" cy="228" r="3.4" fill="#33291e"/><text x="88.9" y="241.9" font-size="14" fill="#33291e" text-anchor="middle" font-weight="bold">D</text><polyline points="132.3,82.3 132.3,84 132.1,85.7 131.8,87.3 131.4,89 130.9,90.5 130.2,92.1 129.3,93.5 128.4,94.9 127.4,96.2 126.2,97.4 124.9,98.5 123.6,99.5 122.2,100.4 120.7,101.2 119.1,101.8 117.6,102.3 115.9,102.7 114.3,102.9 112.6,103 110.9,103" fill="none" stroke="#33291e" stroke-width="1.8" stroke-linejoin="round" stroke-linecap="round"/><text x="135.9" y="112.5" font-size="14" fill="#33291e" text-anchor="middle" font-weight="bold">68°</text><polyline points="287,221 285.5,221.1 284.1,221.3 282.6,221.6 281.2,222 279.9,222.5 278.5,223.2 277.3,223.9 276,224.7 274.9,225.6 273.8,226.6 272.8,227.6 271.8,228.8 271,229.9 270.2,231.2 269.6,232.5 269,233.9 268.5,235.2 268.2,236.7 267.9,238.1 267.7,239.6" fill="none" stroke="#33291e" stroke-width="1.8" stroke-linejoin="round" stroke-linecap="round"/><text x="264.1" y="221.5" font-size="14" fill="#33291e" text-anchor="middle" font-weight="bold">?</text><text x="240" y="305" font-size="15" fill="#33291e" text-anchor="middle" font-weight="bold">圓內接四邊形 ABCD</text></svg>
