<svg xmlns="http://www.w3.org/2000/svg" viewBox="0 0 480 320" font-family="'Noto Sans TC','PingFang TC','Microsoft JhengHei',sans-serif"><rect width="480" height="320" rx="10" fill="#faf6ec"/><circle cx="158" cy="168" r="82" fill="none" stroke="#33291e" stroke-width="2.5"/><line x1="158" y1="168" x2="184.9" y2="90.5" stroke="#33291e" stroke-width="2"  stroke-linecap="round"/><line x1="158" y1="168" x2="184.9" y2="245.5" stroke="#33291e" stroke-width="2"  stroke-linecap="round"/><line x1="408" y1="168" x2="184.9" y2="90.5" stroke="#33291e" stroke-width="2.5"  stroke-linecap="round"/><line x1="408" y1="168" x2="184.9" y2="245.5" stroke="#33291e" stroke-width="2.5"  stroke-linecap="round"/><polyline points="181.3,100.9 191.7,104.5 195.3,94.1" fill="none" stroke="#33291e" stroke-width="1.8" stroke-linejoin="round" stroke-linecap="round"/><polyline points="181.3,235.1 191.7,231.5 195.3,241.9" fill="none" stroke="#33291e" stroke-width="1.8" stroke-linejoin="round" stroke-linecap="round"/><circle cx="184.9" cy="90.5" r="3.4" fill="#33291e"/><circle cx="184.9" cy="245.5" r="3.4" fill="#33291e"/><circle cx="158" cy="168" r="3.4" fill="#33291e"/><circle cx="408" cy="168" r="3.4" fill="#33291e"/><text x="189.8" y="81.4" font-size="14" fill="#33291e" text-anchor="middle" font-weight="bold">A</text><text x="189.8" y="264.6" font-size="14" fill="#33291e" text-anchor="middle" font-weight="bold">B</text><text x="144" y="173" font-size="13" fill="#33291e" text-anchor="middle" font-weight="bold">O</text><text x="422" y="173" font-size="14" fill="#33291e" text-anchor="middle" font-weight="bold">P</text><text x="301.4" y="120.1" font-size="15" fill="#33291e" text-anchor="middle" font-weight="bold">12</text><text x="301.4" y="225.9" font-size="15" fill="#33291e" text-anchor="middle" font-weight="bold">?</text><text x="240" y="305" font-size="15" fill="#33291e" text-anchor="middle" font-weight="bold">圓外一點向圓作兩條切線</text></svg>
