<svg xmlns="http://www.w3.org/2000/svg" viewBox="0 0 480 320" font-family="'Noto Sans TC','PingFang TC','Microsoft JhengHei',sans-serif"><rect width="480" height="320" rx="10" fill="#faf6ec"/><circle cx="200" cy="162" r="118" fill="none" stroke="#33291e" stroke-width="2.5"/><polygon points="112.3,83 282,77.1 287.7,241 102.2,228" fill="none" stroke="#33291e" stroke-width="2.5" stroke-linejoin="round"/><circle cx="112.3" cy="83" r="3.4" fill="#33291e"/><text x="100.4" y="77.3" font-size="14" fill="#33291e" text-anchor="middle" font-weight="bold">A</text><circle cx="282" cy="77.1" r="3.4" fill="#33291e"/><text x="293.1" y="70.6" font-size="14" fill="#33291e" text-anchor="middle" font-weight="bold">B</text><circle cx="287.7" cy="241" r="3.4" fill="#33291e"/><text x="299.6" y="256.7" font-size="14" fill="#33291e" text-anchor="middle" font-weight="bold">C</text><circle cx="102.2" cy="228" r="3.4" fill="#33291e"/><text x="88.9" y="241.9" font-size="14" fill="#33291e" text-anchor="middle" font-weight="bold">D</text><polyline points="132.3,82.3 132.3,84 132.1,85.7 131.8,87.3 131.4,89 130.9,90.5 130.2,92.1 129.3,93.5 128.4,94.9 127.4,96.2 126.2,97.4 124.9,98.5 123.6,99.5 122.2,100.4 120.7,101.2 119.1,101.8 117.6,102.3 115.9,102.7 114.3,102.9 112.6,103 110.9,103" fill="none" stroke="#33291e" stroke-width="1.8" stroke-linejoin="round" stroke-linecap="round"/><text x="135.9" y="112.5" font-size="14" fill="#33291e" text-anchor="middle" font-weight="bold">70°</text><polyline points="262,77.8 262.1,79.4 262.3,80.9 262.7,82.5 263.2,84 263.8,85.4 264.5,86.8 265.3,88.2 266.2,89.4 267.2,90.6 268.3,91.7 269.5,92.8 270.8,93.7 272.1,94.5 273.5,95.2 275,95.9 276.5,96.3 278,96.7 279.5,97 281.1,97.1 282.7,97.1" fill="none" stroke="#33291e" stroke-width="1.8" stroke-linejoin="round" stroke-linecap="round"/><text x="258.8" y="107" font-size="14" fill="#33291e" text-anchor="middle" font-weight="bold">95°</text><polyline points="103.6,208 105.1,208.2 106.7,208.5 108.2,208.9 109.7,209.4 111.1,210.1 112.5,210.8 113.8,211.7 115,212.7 116.2,213.7 117.3,214.9 118.3,216.1 119.1,217.4 119.9,218.7 120.6,220.2 121.1,221.6 121.6,223.1 121.9,224.7 122.1,226.2 122.2,227.8 122.1,229.4" fill="none" stroke="#33291e" stroke-width="1.8" stroke-linejoin="round" stroke-linecap="round"/><text x="127.8" y="210.7" font-size="14" fill="#33291e" text-anchor="middle" font-weight="bold">?</text><text x="240" y="305" font-size="15" fill="#33291e" text-anchor="middle" font-weight="bold">圓內接四邊形 ABCD</text></svg>
