<svg xmlns="http://www.w3.org/2000/svg" viewBox="0 0 480 320" font-family="'Noto Sans TC','PingFang TC','Microsoft JhengHei',sans-serif"><rect width="480" height="320" rx="10" fill="#faf6ec"/><circle cx="200" cy="168" r="112" fill="none" stroke="#33291e" stroke-width="2.5"/><line x1="200" y1="168" x2="137.4" y2="260.9" stroke="#33291e" stroke-width="2.5"  stroke-linecap="round"/><line x1="200" y1="168" x2="305.2" y2="206.3" stroke="#33291e" stroke-width="2.5"  stroke-linecap="round"/><line x1="211.7" y1="56.6" x2="137.4" y2="260.9" stroke="#33291e" stroke-width="2.5"  stroke-linecap="round"/><line x1="211.7" y1="56.6" x2="305.2" y2="206.3" stroke="#33291e" stroke-width="2.5"  stroke-linecap="round"/><circle cx="137.4" cy="260.9" r="3.4" fill="#33291e"/><circle cx="305.2" cy="206.3" r="3.4" fill="#33291e"/><circle cx="211.7" cy="56.6" r="3.4" fill="#33291e"/><circle cx="200" cy="168" r="3.4" fill="#33291e"/><text x="129" y="278.3" font-size="14" fill="#33291e" text-anchor="middle" font-weight="bold">A</text><text x="319.3" y="216.4" font-size="14" fill="#33291e" text-anchor="middle" font-weight="bold">B</text><text x="213.3" y="46.7" font-size="14" fill="#33291e" text-anchor="middle" font-weight="bold">C</text><text x="188" y="173" font-size="13" fill="#33291e" text-anchor="middle" font-weight="bold">O</text><polyline points="183.2,192.9 185.5,194.3 188,195.5 190.5,196.5 193.1,197.2 195.8,197.7 198.5,198 201.3,198 204,197.7 206.6,197.3 209.3,196.5 211.8,195.6 214.3,194.4 216.6,193 218.8,191.4 220.8,189.6 222.7,187.6 224.4,185.5 225.9,183.2 227.1,180.8 228.2,178.3" fill="none" stroke="#33291e" stroke-width="1.8" stroke-linejoin="round" stroke-linecap="round"/><text x="216.1" y="222.5" font-size="14" fill="#33291e" text-anchor="middle" font-weight="bold">100°</text><polyline points="204.2,77.3 205.1,77.6 206.1,77.9 207.1,78.1 208,78.3 209,78.4 210,78.5 211,78.6 212,78.6 213,78.6 214,78.5 215,78.4 216,78.2 217,78 217.9,77.7 218.9,77.4 219.8,77.1 220.7,76.7 221.6,76.3 222.5,75.8 223.4,75.3" fill="none" stroke="#33291e" stroke-width="1.8" stroke-linejoin="round" stroke-linecap="round"/><text x="215.9" y="101.4" font-size="14" fill="#33291e" text-anchor="middle" font-weight="bold">?</text><text x="240" y="305" font-size="15" fill="#33291e" text-anchor="middle" font-weight="bold">同弧 AB 上的圓心角與圓周角</text></svg>
