<svg xmlns="http://www.w3.org/2000/svg" viewBox="0 0 480 320" font-family="'Noto Sans TC','PingFang TC','Microsoft JhengHei',sans-serif"><rect width="480" height="320" rx="10" fill="#faf6ec"/><line x1="56" y1="44" x2="56" y2="276" stroke="#ddd0b8" stroke-width="1"  stroke-linecap="round"/><line x1="112.57142857142857" y1="44" x2="112.57142857142857" y2="276" stroke="#ddd0b8" stroke-width="1"  stroke-linecap="round"/><line x1="169.14285714285714" y1="44" x2="169.14285714285714" y2="276" stroke="#ddd0b8" stroke-width="1"  stroke-linecap="round"/><line x1="225.7142857142857" y1="44" x2="225.7142857142857" y2="276" stroke="#ddd0b8" stroke-width="1"  stroke-linecap="round"/><line x1="282.2857142857143" y1="44" x2="282.2857142857143" y2="276" stroke="#ddd0b8" stroke-width="1"  stroke-linecap="round"/><line x1="338.8571428571429" y1="44" x2="338.8571428571429" y2="276" stroke="#ddd0b8" stroke-width="1"  stroke-linecap="round"/><line x1="395.4285714285714" y1="44" x2="395.4285714285714" y2="276" stroke="#ddd0b8" stroke-width="1"  stroke-linecap="round"/><line x1="452" y1="44" x2="452" y2="276" stroke="#ddd0b8" stroke-width="1"  stroke-linecap="round"/><line x1="56" y1="276" x2="452" y2="276" stroke="#ddd0b8" stroke-width="1"  stroke-linecap="round"/><line x1="56" y1="242.85714285714286" x2="452" y2="242.85714285714286" stroke="#ddd0b8" stroke-width="1"  stroke-linecap="round"/><line x1="56" y1="209.71428571428572" x2="452" y2="209.71428571428572" stroke="#ddd0b8" stroke-width="1"  stroke-linecap="round"/><line x1="56" y1="176.57142857142858" x2="452" y2="176.57142857142858" stroke="#ddd0b8" stroke-width="1"  stroke-linecap="round"/><line x1="56" y1="143.42857142857144" x2="452" y2="143.42857142857144" stroke="#ddd0b8" stroke-width="1"  stroke-linecap="round"/><line x1="56" y1="110.28571428571428" x2="452" y2="110.28571428571428" stroke="#ddd0b8" stroke-width="1"  stroke-linecap="round"/><line x1="56" y1="77.14285714285717" x2="452" y2="77.14285714285717" stroke="#ddd0b8" stroke-width="1"  stroke-linecap="round"/><line x1="56" y1="44" x2="452" y2="44" stroke="#ddd0b8" stroke-width="1"  stroke-linecap="round"/><line x1="112.57142857142857" y1="44" x2="112.57142857142857" y2="276" stroke="#6b5c45" stroke-width="1.5"  stroke-linecap="round"/><line x1="56" y1="209.71428571428572" x2="452" y2="209.71428571428572" stroke="#6b5c45" stroke-width="1.5"  stroke-linecap="round"/><line x1="112.57142857142857" y1="143.42857142857144" x2="395.4285714285714" y2="143.42857142857144" stroke="#2f6f9f" stroke-width="3"  stroke-linecap="round"/><text x="294" y="135.42857142857144" font-size="17" fill="#2f6f9f" text-anchor="middle" font-weight="bold">AB</text><line x1="169.14285714285714" y1="242.85714285714286" x2="169.14285714285714" y2="77.14285714285717" stroke="#b5451d" stroke-width="3"  stroke-linecap="round"/><text x="181.14285714285714" y="90" font-size="17" fill="#b5451d" text-anchor="middle" font-weight="bold">CD</text><circle cx="112.57142857142857" cy="143.42857142857144" r="4" fill="#33291e"/><text x="120.57142857142857" y="135.42857142857144" font-size="14" fill="#33291e" text-anchor="start" font-weight="normal">A</text><circle cx="395.4285714285714" cy="143.42857142857144" r="4" fill="#33291e"/><text x="403.4285714285714" y="135.42857142857144" font-size="14" fill="#33291e" text-anchor="start" font-weight="normal">B</text><circle cx="169.14285714285714" cy="242.85714285714286" r="4" fill="#33291e"/><text x="177.14285714285714" y="258.8571428571429" font-size="14" fill="#33291e" text-anchor="start" font-weight="normal">C</text><circle cx="169.14285714285714" cy="77.14285714285717" r="4" fill="#33291e"/><text x="177.14285714285714" y="69.14285714285717" font-size="14" fill="#33291e" text-anchor="start" font-weight="normal">D</text><path d="M 181.14285714285714 143.42857142857144 L 181.14285714285714 131.42857142857144 L 169.14285714285714 131.42857142857144" fill="none" stroke="#33291e" stroke-width="1.5"/><text x="240" y="300" font-size="17" fill="#33291e" text-anchor="middle" font-weight="bold">AB 為水平、CD 為鉛直 → 垂直</text></svg>