<svg xmlns="http://www.w3.org/2000/svg" viewBox="0 0 480 320" font-family="'Noto Sans TC','PingFang TC','Microsoft JhengHei',sans-serif"><rect width="480" height="320" rx="10" fill="#faf6ec"/><line x1="56" y1="44" x2="56" y2="276" stroke="#ddd0b8" stroke-width="1"  stroke-linecap="round"/><line x1="105.5" y1="44" x2="105.5" y2="276" stroke="#ddd0b8" stroke-width="1"  stroke-linecap="round"/><line x1="155" y1="44" x2="155" y2="276" stroke="#ddd0b8" stroke-width="1"  stroke-linecap="round"/><line x1="204.5" y1="44" x2="204.5" y2="276" stroke="#ddd0b8" stroke-width="1"  stroke-linecap="round"/><line x1="254" y1="44" x2="254" y2="276" stroke="#ddd0b8" stroke-width="1"  stroke-linecap="round"/><line x1="303.5" y1="44" x2="303.5" y2="276" stroke="#ddd0b8" stroke-width="1"  stroke-linecap="round"/><line x1="353" y1="44" x2="353" y2="276" stroke="#ddd0b8" stroke-width="1"  stroke-linecap="round"/><line x1="402.5" y1="44" x2="402.5" y2="276" stroke="#ddd0b8" stroke-width="1"  stroke-linecap="round"/><line x1="452" y1="44" x2="452" y2="276" stroke="#ddd0b8" stroke-width="1"  stroke-linecap="round"/><line x1="56" y1="276" x2="452" y2="276" stroke="#ddd0b8" stroke-width="1"  stroke-linecap="round"/><line x1="56" y1="247" x2="452" y2="247" stroke="#ddd0b8" stroke-width="1"  stroke-linecap="round"/><line x1="56" y1="218" x2="452" y2="218" stroke="#ddd0b8" stroke-width="1"  stroke-linecap="round"/><line x1="56" y1="189" x2="452" y2="189" stroke="#ddd0b8" stroke-width="1"  stroke-linecap="round"/><line x1="56" y1="160" x2="452" y2="160" stroke="#ddd0b8" stroke-width="1"  stroke-linecap="round"/><line x1="56" y1="131" x2="452" y2="131" stroke="#ddd0b8" stroke-width="1"  stroke-linecap="round"/><line x1="56" y1="102" x2="452" y2="102" stroke="#ddd0b8" stroke-width="1"  stroke-linecap="round"/><line x1="56" y1="73" x2="452" y2="73" stroke="#ddd0b8" stroke-width="1"  stroke-linecap="round"/><line x1="56" y1="44" x2="452" y2="44" stroke="#ddd0b8" stroke-width="1"  stroke-linecap="round"/><line x1="254" y1="44" x2="254" y2="276" stroke="#6b5c45" stroke-width="1.5"  stroke-linecap="round"/><line x1="56" y1="160" x2="452" y2="160" stroke="#6b5c45" stroke-width="1.5"  stroke-linecap="round"/><line x1="56" y1="131" x2="452" y2="131" stroke="#2f6f9f" stroke-width="3"  stroke-linecap="round"/><text x="104" y="125" font-size="17" fill="#2f6f9f" text-anchor="middle" font-weight="bold">l</text><line x1="303.5" y1="276" x2="303.5" y2="44" stroke="#b5451d" stroke-width="3"  stroke-linecap="round"/><text x="313.5" y="60" font-size="17" fill="#b5451d" text-anchor="middle" font-weight="bold">m</text><path d="M 315.5 131 L 315.5 119 L 303.5 119" fill="none" stroke="#33291e" stroke-width="1.5"/><text x="240" y="300" font-size="17" fill="#33291e" text-anchor="middle" font-weight="bold">水平線 l ⊥ 鉛直線 m</text></svg>