<svg xmlns="http://www.w3.org/2000/svg" viewBox="0 0 480 320" font-family="'Noto Sans TC','PingFang TC','Microsoft JhengHei',sans-serif"><rect width="480" height="320" rx="10" fill="#faf6ec"/><line x1="56" y1="44" x2="56" y2="276" stroke="#ddd0b8" stroke-width="1"  stroke-linecap="round"/><line x1="135.2" y1="44" x2="135.2" y2="276" stroke="#ddd0b8" stroke-width="1"  stroke-linecap="round"/><line x1="214.4" y1="44" x2="214.4" y2="276" stroke="#ddd0b8" stroke-width="1"  stroke-linecap="round"/><line x1="293.6" y1="44" x2="293.6" y2="276" stroke="#ddd0b8" stroke-width="1"  stroke-linecap="round"/><line x1="372.8" y1="44" x2="372.8" y2="276" stroke="#ddd0b8" stroke-width="1"  stroke-linecap="round"/><line x1="452" y1="44" x2="452" y2="276" stroke="#ddd0b8" stroke-width="1"  stroke-linecap="round"/><line x1="56" y1="276" x2="452" y2="276" stroke="#ddd0b8" stroke-width="1"  stroke-linecap="round"/><line x1="56" y1="237.33333333333334" x2="452" y2="237.33333333333334" stroke="#ddd0b8" stroke-width="1"  stroke-linecap="round"/><line x1="56" y1="198.66666666666669" x2="452" y2="198.66666666666669" stroke="#ddd0b8" stroke-width="1"  stroke-linecap="round"/><line x1="56" y1="160" x2="452" y2="160" stroke="#ddd0b8" stroke-width="1"  stroke-linecap="round"/><line x1="56" y1="121.33333333333334" x2="452" y2="121.33333333333334" stroke="#ddd0b8" stroke-width="1"  stroke-linecap="round"/><line x1="56" y1="82.66666666666666" x2="452" y2="82.66666666666666" stroke="#ddd0b8" stroke-width="1"  stroke-linecap="round"/><line x1="56" y1="44" x2="452" y2="44" stroke="#ddd0b8" stroke-width="1"  stroke-linecap="round"/><line x1="135.2" y1="44" x2="135.2" y2="276" stroke="#6b5c45" stroke-width="1.5"  stroke-linecap="round"/><line x1="56" y1="82.66666666666666" x2="452" y2="82.66666666666666" stroke="#6b5c45" stroke-width="1.5"  stroke-linecap="round"/><line x1="135.2" y1="82.66666666666666" x2="372.8" y2="82.66666666666666" stroke="#2f6f9f" stroke-width="3"  stroke-linecap="round"/><text x="284" y="74.66666666666666" font-size="17" fill="#2f6f9f" text-anchor="middle" font-weight="bold">AB→</text><line x1="135.2" y1="82.66666666666666" x2="135.2" y2="237.33333333333334" stroke="#b5451d" stroke-width="3"  stroke-linecap="round"/><text x="157.2" y="200" font-size="17" fill="#b5451d" text-anchor="middle" font-weight="bold">CD↓</text><circle cx="135.2" cy="82.66666666666666" r="4" fill="#33291e"/><text x="129.2" y="74.66666666666666" font-size="14" fill="#33291e" text-anchor="end" font-weight="normal">A,C</text><circle cx="372.8" cy="82.66666666666666" r="4" fill="#33291e"/><text x="380.8" y="74.66666666666666" font-size="14" fill="#33291e" text-anchor="start" font-weight="normal">B</text><circle cx="135.2" cy="237.33333333333334" r="4" fill="#33291e"/><text x="143.2" y="229.33333333333334" font-size="14" fill="#33291e" text-anchor="start" font-weight="normal">D</text><path d="M 147.2 82.66666666666666 L 147.2 70.66666666666666 L 135.2 70.66666666666666" fill="none" stroke="#33291e" stroke-width="1.5"/><text x="240" y="300" font-size="17" fill="#33291e" text-anchor="middle" font-weight="bold">射線 AB 沿 x 軸、CD 沿 y 軸 → 垂直</text></svg>