<svg xmlns="http://www.w3.org/2000/svg" viewBox="0 0 480 320" font-family="'Noto Sans TC','PingFang TC','Microsoft JhengHei',sans-serif"><rect width="480" height="320" rx="10" fill="#faf6ec"/><line x1="56" y1="44" x2="56" y2="276" stroke="#ddd0b8" stroke-width="1"  stroke-linecap="round"/><line x1="105.5" y1="44" x2="105.5" y2="276" stroke="#ddd0b8" stroke-width="1"  stroke-linecap="round"/><line x1="155" y1="44" x2="155" y2="276" stroke="#ddd0b8" stroke-width="1"  stroke-linecap="round"/><line x1="204.5" y1="44" x2="204.5" y2="276" stroke="#ddd0b8" stroke-width="1"  stroke-linecap="round"/><line x1="254" y1="44" x2="254" y2="276" stroke="#ddd0b8" stroke-width="1"  stroke-linecap="round"/><line x1="303.5" y1="44" x2="303.5" y2="276" stroke="#ddd0b8" stroke-width="1"  stroke-linecap="round"/><line x1="353" y1="44" x2="353" y2="276" stroke="#ddd0b8" stroke-width="1"  stroke-linecap="round"/><line x1="402.5" y1="44" x2="402.5" y2="276" stroke="#ddd0b8" stroke-width="1"  stroke-linecap="round"/><line x1="452" y1="44" x2="452" y2="276" stroke="#ddd0b8" stroke-width="1"  stroke-linecap="round"/><line x1="56" y1="276" x2="452" y2="276" stroke="#ddd0b8" stroke-width="1"  stroke-linecap="round"/><line x1="56" y1="218" x2="452" y2="218" stroke="#ddd0b8" stroke-width="1"  stroke-linecap="round"/><line x1="56" y1="160" x2="452" y2="160" stroke="#ddd0b8" stroke-width="1"  stroke-linecap="round"/><line x1="56" y1="102" x2="452" y2="102" stroke="#ddd0b8" stroke-width="1"  stroke-linecap="round"/><line x1="56" y1="44" x2="452" y2="44" stroke="#ddd0b8" stroke-width="1"  stroke-linecap="round"/><line x1="204.5" y1="44" x2="204.5" y2="276" stroke="#6b5c45" stroke-width="1.5"  stroke-linecap="round"/><line x1="56" y1="276" x2="452" y2="276" stroke="#6b5c45" stroke-width="1.5"  stroke-linecap="round"/><line x1="204.5" y1="218" x2="402.5" y2="218" stroke="#2f6f9f" stroke-width="3"  stroke-linecap="round"/><text x="333.5" y="210" font-size="17" fill="#2f6f9f" text-anchor="middle" font-weight="bold">AB</text><line x1="105.5" y1="102" x2="353" y2="102" stroke="#b5451d" stroke-width="3"  stroke-linecap="round"/><text x="259.25" y="94" font-size="17" fill="#b5451d" text-anchor="middle" font-weight="bold">CD</text><circle cx="204.5" cy="218" r="4" fill="#33291e"/><text x="212.5" y="210" font-size="14" fill="#33291e" text-anchor="start" font-weight="normal">A</text><circle cx="402.5" cy="218" r="4" fill="#33291e"/><text x="410.5" y="210" font-size="14" fill="#33291e" text-anchor="start" font-weight="normal">B</text><circle cx="105.5" cy="102" r="4" fill="#33291e"/><text x="113.5" y="94" font-size="14" fill="#33291e" text-anchor="start" font-weight="normal">C</text><circle cx="353" cy="102" r="4" fill="#33291e"/><text x="361" y="94" font-size="14" fill="#33291e" text-anchor="start" font-weight="normal">D</text><text x="240" y="300" font-size="17" fill="#33291e" text-anchor="middle" font-weight="bold">AB 與 CD 皆水平 → 平行</text></svg>