<svg xmlns="http://www.w3.org/2000/svg" viewBox="0 0 480 320" font-family="'Noto Sans TC','PingFang TC','Microsoft JhengHei',sans-serif"><rect width="480" height="320" rx="10" fill="#faf6ec"/><line x1="56.0" y1="44.0" x2="56.0" y2="266.0" stroke="#ddd0b8" stroke-width="1"  stroke-linecap="round"/><line x1="135.2" y1="44.0" x2="135.2" y2="266.0" stroke="#ddd0b8" stroke-width="1"  stroke-linecap="round"/><line x1="214.4" y1="44.0" x2="214.4" y2="266.0" stroke="#ddd0b8" stroke-width="1"  stroke-linecap="round"/><line x1="293.6" y1="44.0" x2="293.6" y2="266.0" stroke="#ddd0b8" stroke-width="1"  stroke-linecap="round"/><line x1="372.8" y1="44.0" x2="372.8" y2="266.0" stroke="#ddd0b8" stroke-width="1"  stroke-linecap="round"/><line x1="452.0" y1="44.0" x2="452.0" y2="266.0" stroke="#ddd0b8" stroke-width="1"  stroke-linecap="round"/><line x1="56.0" y1="266.0" x2="452.0" y2="266.0" stroke="#ddd0b8" stroke-width="1"  stroke-linecap="round"/><line x1="56.0" y1="234.3" x2="452.0" y2="234.3" stroke="#ddd0b8" stroke-width="1"  stroke-linecap="round"/><line x1="56.0" y1="202.6" x2="452.0" y2="202.6" stroke="#ddd0b8" stroke-width="1"  stroke-linecap="round"/><line x1="56.0" y1="170.9" x2="452.0" y2="170.9" stroke="#ddd0b8" stroke-width="1"  stroke-linecap="round"/><line x1="56.0" y1="139.1" x2="452.0" y2="139.1" stroke="#ddd0b8" stroke-width="1"  stroke-linecap="round"/><line x1="56.0" y1="107.4" x2="452.0" y2="107.4" stroke="#ddd0b8" stroke-width="1"  stroke-linecap="round"/><line x1="56.0" y1="75.7" x2="452.0" y2="75.7" stroke="#ddd0b8" stroke-width="1"  stroke-linecap="round"/><line x1="56.0" y1="44.0" x2="452.0" y2="44.0" stroke="#ddd0b8" stroke-width="1"  stroke-linecap="round"/><line x1="135.2" y1="44.0" x2="135.2" y2="266.0" stroke="#6b5c45" stroke-width="1.5"  stroke-linecap="round"/><line x1="56.0" y1="234.3" x2="452.0" y2="234.3" stroke="#6b5c45" stroke-width="1.5"  stroke-linecap="round"/><text x="446.0" y="226.3" font-size="13" fill="#6b5c45" text-anchor="middle" font-weight="normal">x</text><text x="147.2" y="54.0" font-size="13" fill="#6b5c45" text-anchor="middle" font-weight="normal">y</text><circle cx="135.2" cy="202.6" r="5" fill="#2f6f9f"/><text x="145.2" y="193.6" font-size="13" fill="#2f6f9f" text-anchor="start" font-weight="bold">(0,1)</text><circle cx="293.6" cy="75.7" r="5" fill="#2f6f9f"/><text x="303.6" y="66.7" font-size="13" fill="#2f6f9f" text-anchor="start" font-weight="bold">(2,5)</text><text x="240.0" y="300.0" font-size="15" fill="#33291e" text-anchor="middle" font-weight="bold">直線過 (0,1) 與 (2,5)，求一次函數</text></svg>