<svg xmlns="http://www.w3.org/2000/svg" viewBox="0 0 480 320" font-family="'Noto Sans TC','PingFang TC','Microsoft JhengHei',sans-serif"><rect width="480" height="320" rx="10" fill="#faf6ec"/><line x1="56.0" y1="44.0" x2="56.0" y2="266.0" stroke="#ddd0b8" stroke-width="1"  stroke-linecap="round"/><line x1="122.0" y1="44.0" x2="122.0" y2="266.0" stroke="#ddd0b8" stroke-width="1"  stroke-linecap="round"/><line x1="188.0" y1="44.0" x2="188.0" y2="266.0" stroke="#ddd0b8" stroke-width="1"  stroke-linecap="round"/><line x1="254.0" y1="44.0" x2="254.0" y2="266.0" stroke="#ddd0b8" stroke-width="1"  stroke-linecap="round"/><line x1="320.0" y1="44.0" x2="320.0" y2="266.0" stroke="#ddd0b8" stroke-width="1"  stroke-linecap="round"/><line x1="386.0" y1="44.0" x2="386.0" y2="266.0" stroke="#ddd0b8" stroke-width="1"  stroke-linecap="round"/><line x1="452.0" y1="44.0" x2="452.0" y2="266.0" stroke="#ddd0b8" stroke-width="1"  stroke-linecap="round"/><line x1="56.0" y1="266.0" x2="452.0" y2="266.0" stroke="#ddd0b8" stroke-width="1"  stroke-linecap="round"/><line x1="56.0" y1="241.3" x2="452.0" y2="241.3" stroke="#ddd0b8" stroke-width="1"  stroke-linecap="round"/><line x1="56.0" y1="216.7" x2="452.0" y2="216.7" stroke="#ddd0b8" stroke-width="1"  stroke-linecap="round"/><line x1="56.0" y1="192.0" x2="452.0" y2="192.0" stroke="#ddd0b8" stroke-width="1"  stroke-linecap="round"/><line x1="56.0" y1="167.3" x2="452.0" y2="167.3" stroke="#ddd0b8" stroke-width="1"  stroke-linecap="round"/><line x1="56.0" y1="142.7" x2="452.0" y2="142.7" stroke="#ddd0b8" stroke-width="1"  stroke-linecap="round"/><line x1="56.0" y1="118.0" x2="452.0" y2="118.0" stroke="#ddd0b8" stroke-width="1"  stroke-linecap="round"/><line x1="56.0" y1="93.3" x2="452.0" y2="93.3" stroke="#ddd0b8" stroke-width="1"  stroke-linecap="round"/><line x1="56.0" y1="68.7" x2="452.0" y2="68.7" stroke="#ddd0b8" stroke-width="1"  stroke-linecap="round"/><line x1="56.0" y1="44.0" x2="452.0" y2="44.0" stroke="#ddd0b8" stroke-width="1"  stroke-linecap="round"/><line x1="122.0" y1="44.0" x2="122.0" y2="266.0" stroke="#6b5c45" stroke-width="1.5"  stroke-linecap="round"/><line x1="56.0" y1="241.3" x2="452.0" y2="241.3" stroke="#6b5c45" stroke-width="1.5"  stroke-linecap="round"/><text x="446.0" y="233.3" font-size="13" fill="#6b5c45" text-anchor="middle" font-weight="normal">x</text><text x="134.0" y="54.0" font-size="13" fill="#6b5c45" text-anchor="middle" font-weight="normal">y</text><circle cx="188.0" cy="167.3" r="5" fill="#2f6f9f"/><text x="198.0" y="158.3" font-size="13" fill="#2f6f9f" text-anchor="start" font-weight="bold">(1,3)</text><circle cx="320.0" cy="68.7" r="5" fill="#2f6f9f"/><text x="330.0" y="59.7" font-size="13" fill="#2f6f9f" text-anchor="start" font-weight="bold">(3,7)</text><text x="240.0" y="300.0" font-size="15" fill="#33291e" text-anchor="middle" font-weight="bold">直線過 (1,3) 與 (3,7)，求一次函數</text></svg>