<svg xmlns="http://www.w3.org/2000/svg" viewBox="0 0 480 320" font-family="'Noto Sans TC','PingFang TC','Microsoft JhengHei',sans-serif"><rect width="480" height="320" rx="10" fill="#faf6ec"/><line x1="56.0" y1="44.0" x2="56.0" y2="266.0" stroke="#ddd0b8" stroke-width="1"  stroke-linecap="round"/><line x1="105.5" y1="44.0" x2="105.5" y2="266.0" stroke="#ddd0b8" stroke-width="1"  stroke-linecap="round"/><line x1="155.0" y1="44.0" x2="155.0" y2="266.0" stroke="#ddd0b8" stroke-width="1"  stroke-linecap="round"/><line x1="204.5" y1="44.0" x2="204.5" y2="266.0" stroke="#ddd0b8" stroke-width="1"  stroke-linecap="round"/><line x1="254.0" y1="44.0" x2="254.0" y2="266.0" stroke="#ddd0b8" stroke-width="1"  stroke-linecap="round"/><line x1="303.5" y1="44.0" x2="303.5" y2="266.0" stroke="#ddd0b8" stroke-width="1"  stroke-linecap="round"/><line x1="353.0" y1="44.0" x2="353.0" y2="266.0" stroke="#ddd0b8" stroke-width="1"  stroke-linecap="round"/><line x1="402.5" y1="44.0" x2="402.5" y2="266.0" stroke="#ddd0b8" stroke-width="1"  stroke-linecap="round"/><line x1="452.0" y1="44.0" x2="452.0" y2="266.0" stroke="#ddd0b8" stroke-width="1"  stroke-linecap="round"/><line x1="56.0" y1="266.0" x2="452.0" y2="266.0" stroke="#ddd0b8" stroke-width="1"  stroke-linecap="round"/><line x1="56.0" y1="238.3" x2="452.0" y2="238.3" stroke="#ddd0b8" stroke-width="1"  stroke-linecap="round"/><line x1="56.0" y1="210.5" x2="452.0" y2="210.5" stroke="#ddd0b8" stroke-width="1"  stroke-linecap="round"/><line x1="56.0" y1="182.8" x2="452.0" y2="182.8" stroke="#ddd0b8" stroke-width="1"  stroke-linecap="round"/><line x1="56.0" y1="155.0" x2="452.0" y2="155.0" stroke="#ddd0b8" stroke-width="1"  stroke-linecap="round"/><line x1="56.0" y1="127.3" x2="452.0" y2="127.3" stroke="#ddd0b8" stroke-width="1"  stroke-linecap="round"/><line x1="56.0" y1="99.5" x2="452.0" y2="99.5" stroke="#ddd0b8" stroke-width="1"  stroke-linecap="round"/><line x1="56.0" y1="71.8" x2="452.0" y2="71.8" stroke="#ddd0b8" stroke-width="1"  stroke-linecap="round"/><line x1="56.0" y1="44.0" x2="452.0" y2="44.0" stroke="#ddd0b8" stroke-width="1"  stroke-linecap="round"/><line x1="204.5" y1="44.0" x2="204.5" y2="266.0" stroke="#6b5c45" stroke-width="1.5"  stroke-linecap="round"/><line x1="56.0" y1="210.5" x2="452.0" y2="210.5" stroke="#6b5c45" stroke-width="1.5"  stroke-linecap="round"/><text x="446.0" y="202.5" font-size="13" fill="#6b5c45" text-anchor="middle" font-weight="normal">x</text><text x="216.5" y="54.0" font-size="13" fill="#6b5c45" text-anchor="middle" font-weight="normal">y</text><circle cx="105.5" cy="71.8" r="5" fill="#2f6f9f"/><text x="115.5" y="62.8" font-size="13" fill="#2f6f9f" text-anchor="start" font-weight="bold">(-2,5)</text><circle cx="402.5" cy="238.3" r="5" fill="#2f6f9f"/><text x="412.5" y="229.3" font-size="13" fill="#2f6f9f" text-anchor="start" font-weight="bold">(4,-1)</text><text x="240.0" y="300.0" font-size="15" fill="#33291e" text-anchor="middle" font-weight="bold">直線過 (−2,5) 與 (4,−1)，求一次函數</text></svg>