<svg xmlns="http://www.w3.org/2000/svg" viewBox="0 0 480 320" font-family="'Noto Sans TC','PingFang TC','Microsoft JhengHei',sans-serif"><rect width="480" height="320" rx="10" fill="#faf6ec"/><line x1="56.0" y1="44.0" x2="56.0" y2="266.0" stroke="#ddd0b8" stroke-width="1"  stroke-linecap="round"/><line x1="122.0" y1="44.0" x2="122.0" y2="266.0" stroke="#ddd0b8" stroke-width="1"  stroke-linecap="round"/><line x1="188.0" y1="44.0" x2="188.0" y2="266.0" stroke="#ddd0b8" stroke-width="1"  stroke-linecap="round"/><line x1="254.0" y1="44.0" x2="254.0" y2="266.0" stroke="#ddd0b8" stroke-width="1"  stroke-linecap="round"/><line x1="320.0" y1="44.0" x2="320.0" y2="266.0" stroke="#ddd0b8" stroke-width="1"  stroke-linecap="round"/><line x1="386.0" y1="44.0" x2="386.0" y2="266.0" stroke="#ddd0b8" stroke-width="1"  stroke-linecap="round"/><line x1="452.0" y1="44.0" x2="452.0" y2="266.0" stroke="#ddd0b8" stroke-width="1"  stroke-linecap="round"/><line x1="56.0" y1="266.0" x2="452.0" y2="266.0" stroke="#ddd0b8" stroke-width="1"  stroke-linecap="round"/><line x1="56.0" y1="229.0" x2="452.0" y2="229.0" stroke="#ddd0b8" stroke-width="1"  stroke-linecap="round"/><line x1="56.0" y1="192.0" x2="452.0" y2="192.0" stroke="#ddd0b8" stroke-width="1"  stroke-linecap="round"/><line x1="56.0" y1="155.0" x2="452.0" y2="155.0" stroke="#ddd0b8" stroke-width="1"  stroke-linecap="round"/><line x1="56.0" y1="118.0" x2="452.0" y2="118.0" stroke="#ddd0b8" stroke-width="1"  stroke-linecap="round"/><line x1="56.0" y1="81.0" x2="452.0" y2="81.0" stroke="#ddd0b8" stroke-width="1"  stroke-linecap="round"/><line x1="56.0" y1="44.0" x2="452.0" y2="44.0" stroke="#ddd0b8" stroke-width="1"  stroke-linecap="round"/><line x1="122.0" y1="44.0" x2="122.0" y2="266.0" stroke="#6b5c45" stroke-width="1.5"  stroke-linecap="round"/><line x1="56.0" y1="229.0" x2="452.0" y2="229.0" stroke="#6b5c45" stroke-width="1.5"  stroke-linecap="round"/><line x1="122.0" y1="229.0" x2="320.0" y2="229.0" stroke="#5a8a4a" stroke-width="2" stroke-dasharray="5 4" stroke-linecap="round"/><line x1="320.0" y1="229.0" x2="320.0" y2="81.0" stroke="#5a8a4a" stroke-width="2" stroke-dasharray="5 4" stroke-linecap="round"/><path d="M 309.0 229.0 L 309.0 218.0 L 320.0 218.0" fill="none" stroke="#33291e" stroke-width="1.5"/><line x1="122.0" y1="229.0" x2="320.0" y2="81.0" stroke="#b5451d" stroke-width="3"  stroke-linecap="round"/><text x="221.0" y="247.0" font-size="13" fill="#5a8a4a" text-anchor="middle" font-weight="bold">Δx=3</text><text x="346.0" y="159.0" font-size="13" fill="#5a8a4a" text-anchor="middle" font-weight="bold">Δy=4</text><text x="205.0" y="147.0" font-size="16" fill="#b5451d" text-anchor="middle" font-weight="bold">？</text><circle cx="122.0" cy="229.0" r="4" fill="#33291e"/><text x="114.0" y="221.0" font-size="12" fill="#33291e" text-anchor="end" font-weight="normal">(0,0)</text><circle cx="320.0" cy="81.0" r="4" fill="#33291e"/><text x="328.0" y="73.0" font-size="12" fill="#33291e" text-anchor="start" font-weight="normal">(3,4)</text><text x="240.0" y="300.0" font-size="15" fill="#33291e" text-anchor="middle" font-weight="bold">(0,0) 到 (3,4) 的距離</text></svg>