<svg xmlns="http://www.w3.org/2000/svg" viewBox="0 0 480 320" font-family="'Noto Sans TC','PingFang TC','Microsoft JhengHei',sans-serif"><rect width="480" height="320" rx="10" fill="#faf6ec"/><line x1="56.0" y1="44.0" x2="56.0" y2="266.0" stroke="#ddd0b8" stroke-width="1"  stroke-linecap="round"/><line x1="84.3" y1="44.0" x2="84.3" y2="266.0" stroke="#ddd0b8" stroke-width="1"  stroke-linecap="round"/><line x1="112.6" y1="44.0" x2="112.6" y2="266.0" stroke="#ddd0b8" stroke-width="1"  stroke-linecap="round"/><line x1="140.9" y1="44.0" x2="140.9" y2="266.0" stroke="#ddd0b8" stroke-width="1"  stroke-linecap="round"/><line x1="169.1" y1="44.0" x2="169.1" y2="266.0" stroke="#ddd0b8" stroke-width="1"  stroke-linecap="round"/><line x1="197.4" y1="44.0" x2="197.4" y2="266.0" stroke="#ddd0b8" stroke-width="1"  stroke-linecap="round"/><line x1="225.7" y1="44.0" x2="225.7" y2="266.0" stroke="#ddd0b8" stroke-width="1"  stroke-linecap="round"/><line x1="254.0" y1="44.0" x2="254.0" y2="266.0" stroke="#ddd0b8" stroke-width="1"  stroke-linecap="round"/><line x1="282.3" y1="44.0" x2="282.3" y2="266.0" stroke="#ddd0b8" stroke-width="1"  stroke-linecap="round"/><line x1="310.6" y1="44.0" x2="310.6" y2="266.0" stroke="#ddd0b8" stroke-width="1"  stroke-linecap="round"/><line x1="338.9" y1="44.0" x2="338.9" y2="266.0" stroke="#ddd0b8" stroke-width="1"  stroke-linecap="round"/><line x1="367.1" y1="44.0" x2="367.1" y2="266.0" stroke="#ddd0b8" stroke-width="1"  stroke-linecap="round"/><line x1="395.4" y1="44.0" x2="395.4" y2="266.0" stroke="#ddd0b8" stroke-width="1"  stroke-linecap="round"/><line x1="423.7" y1="44.0" x2="423.7" y2="266.0" stroke="#ddd0b8" stroke-width="1"  stroke-linecap="round"/><line x1="452.0" y1="44.0" x2="452.0" y2="266.0" stroke="#ddd0b8" stroke-width="1"  stroke-linecap="round"/><line x1="56.0" y1="266.0" x2="452.0" y2="266.0" stroke="#ddd0b8" stroke-width="1"  stroke-linecap="round"/><line x1="56.0" y1="243.8" x2="452.0" y2="243.8" stroke="#ddd0b8" stroke-width="1"  stroke-linecap="round"/><line x1="56.0" y1="221.6" x2="452.0" y2="221.6" stroke="#ddd0b8" stroke-width="1"  stroke-linecap="round"/><line x1="56.0" y1="199.4" x2="452.0" y2="199.4" stroke="#ddd0b8" stroke-width="1"  stroke-linecap="round"/><line x1="56.0" y1="177.2" x2="452.0" y2="177.2" stroke="#ddd0b8" stroke-width="1"  stroke-linecap="round"/><line x1="56.0" y1="155.0" x2="452.0" y2="155.0" stroke="#ddd0b8" stroke-width="1"  stroke-linecap="round"/><line x1="56.0" y1="132.8" x2="452.0" y2="132.8" stroke="#ddd0b8" stroke-width="1"  stroke-linecap="round"/><line x1="56.0" y1="110.6" x2="452.0" y2="110.6" stroke="#ddd0b8" stroke-width="1"  stroke-linecap="round"/><line x1="56.0" y1="88.4" x2="452.0" y2="88.4" stroke="#ddd0b8" stroke-width="1"  stroke-linecap="round"/><line x1="56.0" y1="66.2" x2="452.0" y2="66.2" stroke="#ddd0b8" stroke-width="1"  stroke-linecap="round"/><line x1="56.0" y1="44.0" x2="452.0" y2="44.0" stroke="#ddd0b8" stroke-width="1"  stroke-linecap="round"/><line x1="140.9" y1="44.0" x2="140.9" y2="266.0" stroke="#6b5c45" stroke-width="1.5"  stroke-linecap="round"/><line x1="56.0" y1="266.0" x2="452.0" y2="266.0" stroke="#6b5c45" stroke-width="1.5"  stroke-linecap="round"/><line x1="84.3" y1="199.4" x2="423.7" y2="199.4" stroke="#5a8a4a" stroke-width="2" stroke-dasharray="5 4" stroke-linecap="round"/><line x1="423.7" y1="199.4" x2="423.7" y2="88.4" stroke="#5a8a4a" stroke-width="2" stroke-dasharray="5 4" stroke-linecap="round"/><path d="M 412.7 199.4 L 412.7 188.4 L 423.7 188.4" fill="none" stroke="#33291e" stroke-width="1.5"/><line x1="84.3" y1="199.4" x2="423.7" y2="88.4" stroke="#b5451d" stroke-width="3"  stroke-linecap="round"/><text x="254.0" y="217.4" font-size="13" fill="#5a8a4a" text-anchor="middle" font-weight="bold">Δx=12</text><text x="449.7" y="147.9" font-size="13" fill="#5a8a4a" text-anchor="middle" font-weight="bold">Δy=5</text><text x="238.0" y="135.9" font-size="16" fill="#b5451d" text-anchor="middle" font-weight="bold">？</text><circle cx="84.3" cy="199.4" r="4" fill="#33291e"/><text x="76.3" y="191.4" font-size="12" fill="#33291e" text-anchor="end" font-weight="normal">(-2,3)</text><circle cx="423.7" cy="88.4" r="4" fill="#33291e"/><text x="431.7" y="80.4" font-size="12" fill="#33291e" text-anchor="start" font-weight="normal">(10,8)</text><text x="240.0" y="300.0" font-size="15" fill="#33291e" text-anchor="middle" font-weight="bold">(−2,3) 到 (10,8) 的距離</text></svg>