<svg xmlns="http://www.w3.org/2000/svg" viewBox="0 0 480 320" font-family="'Noto Sans TC','PingFang TC','Microsoft JhengHei',sans-serif"><rect width="480" height="320" rx="10" fill="#faf6ec"/><line x1="56.0" y1="44.0" x2="56.0" y2="266.0" stroke="#ddd0b8" stroke-width="1"  stroke-linecap="round"/><line x1="105.5" y1="44.0" x2="105.5" y2="266.0" stroke="#ddd0b8" stroke-width="1"  stroke-linecap="round"/><line x1="155.0" y1="44.0" x2="155.0" y2="266.0" stroke="#ddd0b8" stroke-width="1"  stroke-linecap="round"/><line x1="204.5" y1="44.0" x2="204.5" y2="266.0" stroke="#ddd0b8" stroke-width="1"  stroke-linecap="round"/><line x1="254.0" y1="44.0" x2="254.0" y2="266.0" stroke="#ddd0b8" stroke-width="1"  stroke-linecap="round"/><line x1="303.5" y1="44.0" x2="303.5" y2="266.0" stroke="#ddd0b8" stroke-width="1"  stroke-linecap="round"/><line x1="353.0" y1="44.0" x2="353.0" y2="266.0" stroke="#ddd0b8" stroke-width="1"  stroke-linecap="round"/><line x1="402.5" y1="44.0" x2="402.5" y2="266.0" stroke="#ddd0b8" stroke-width="1"  stroke-linecap="round"/><line x1="452.0" y1="44.0" x2="452.0" y2="266.0" stroke="#ddd0b8" stroke-width="1"  stroke-linecap="round"/><line x1="56.0" y1="266.0" x2="452.0" y2="266.0" stroke="#ddd0b8" stroke-width="1"  stroke-linecap="round"/><line x1="56.0" y1="245.8" x2="452.0" y2="245.8" stroke="#ddd0b8" stroke-width="1"  stroke-linecap="round"/><line x1="56.0" y1="225.6" x2="452.0" y2="225.6" stroke="#ddd0b8" stroke-width="1"  stroke-linecap="round"/><line x1="56.0" y1="205.5" x2="452.0" y2="205.5" stroke="#ddd0b8" stroke-width="1"  stroke-linecap="round"/><line x1="56.0" y1="185.3" x2="452.0" y2="185.3" stroke="#ddd0b8" stroke-width="1"  stroke-linecap="round"/><line x1="56.0" y1="165.1" x2="452.0" y2="165.1" stroke="#ddd0b8" stroke-width="1"  stroke-linecap="round"/><line x1="56.0" y1="144.9" x2="452.0" y2="144.9" stroke="#ddd0b8" stroke-width="1"  stroke-linecap="round"/><line x1="56.0" y1="124.7" x2="452.0" y2="124.7" stroke="#ddd0b8" stroke-width="1"  stroke-linecap="round"/><line x1="56.0" y1="104.5" x2="452.0" y2="104.5" stroke="#ddd0b8" stroke-width="1"  stroke-linecap="round"/><line x1="56.0" y1="84.4" x2="452.0" y2="84.4" stroke="#ddd0b8" stroke-width="1"  stroke-linecap="round"/><line x1="56.0" y1="64.2" x2="452.0" y2="64.2" stroke="#ddd0b8" stroke-width="1"  stroke-linecap="round"/><line x1="56.0" y1="44.0" x2="452.0" y2="44.0" stroke="#ddd0b8" stroke-width="1"  stroke-linecap="round"/><line x1="56.0" y1="44.0" x2="56.0" y2="266.0" stroke="#6b5c45" stroke-width="1.5"  stroke-linecap="round"/><line x1="56.0" y1="266.0" x2="452.0" y2="266.0" stroke="#6b5c45" stroke-width="1.5"  stroke-linecap="round"/><line x1="105.5" y1="225.6" x2="402.5" y2="225.6" stroke="#5a8a4a" stroke-width="2" stroke-dasharray="5 4" stroke-linecap="round"/><line x1="402.5" y1="225.6" x2="402.5" y2="64.2" stroke="#5a8a4a" stroke-width="2" stroke-dasharray="5 4" stroke-linecap="round"/><path d="M 391.5 225.6 L 391.5 214.6 L 402.5 214.6" fill="none" stroke="#33291e" stroke-width="1.5"/><line x1="105.5" y1="225.6" x2="402.5" y2="64.2" stroke="#b5451d" stroke-width="3"  stroke-linecap="round"/><text x="254.0" y="243.6" font-size="13" fill="#5a8a4a" text-anchor="middle" font-weight="bold">Δx=6</text><text x="428.5" y="148.9" font-size="13" fill="#5a8a4a" text-anchor="middle" font-weight="bold">Δy=8</text><text x="238.0" y="136.9" font-size="16" fill="#b5451d" text-anchor="middle" font-weight="bold">？</text><circle cx="105.5" cy="225.6" r="4" fill="#33291e"/><text x="97.5" y="217.6" font-size="12" fill="#33291e" text-anchor="end" font-weight="normal">(1,2)</text><circle cx="402.5" cy="64.2" r="4" fill="#33291e"/><text x="410.5" y="56.2" font-size="12" fill="#33291e" text-anchor="start" font-weight="normal">(7,10)</text><text x="240.0" y="300.0" font-size="15" fill="#33291e" text-anchor="middle" font-weight="bold">(1,2) 到 (7,10) 的距離</text></svg>