<svg xmlns="http://www.w3.org/2000/svg" viewBox="0 0 480 320" font-family="'Noto Sans TC','PingFang TC','Microsoft JhengHei',sans-serif"><rect width="480" height="320" rx="10" fill="#faf6ec"/><polygon points="240,58 92,248 388,248" fill="#fbf8f0" stroke="#33291e" stroke-width="2.5" stroke-linejoin="round"/><line x1="174.9" y1="141.6" x2="305.1" y2="141.6" stroke="#33291e" stroke-width="2.5"  stroke-linecap="round"/><circle cx="174.9" cy="141.6" r="3.4" fill="#33291e"/><circle cx="305.1" cy="141.6" r="3.4" fill="#33291e"/><circle cx="240" cy="58" r="3.4" fill="#33291e"/><circle cx="92" cy="248" r="3.4" fill="#33291e"/><circle cx="388" cy="248" r="3.4" fill="#33291e"/><text x="240" y="47" font-size="14" fill="#33291e" text-anchor="middle" font-weight="bold">A</text><text x="78.2" y="258.9" font-size="14" fill="#33291e" text-anchor="middle" font-weight="bold">B</text><text x="401.8" y="258.9" font-size="14" fill="#33291e" text-anchor="middle" font-weight="bold">C</text><text x="159.9" y="146.6" font-size="14" fill="#33291e" text-anchor="middle" font-weight="bold">D</text><text x="320.1" y="146.6" font-size="14" fill="#33291e" text-anchor="middle" font-weight="bold">E</text><polyline points="234,146.6 246,141.6 234,136.6" fill="none" stroke="#33291e" stroke-width="1.8" stroke-linejoin="round" stroke-linecap="round"/><polyline points="234,253 246,248 234,243" fill="none" stroke="#33291e" stroke-width="1.8" stroke-linejoin="round" stroke-linecap="round"/><text x="196.4" y="96.2" font-size="15" fill="#33291e" text-anchor="middle" font-weight="bold">3</text><text x="140.8" y="138.3" font-size="15" fill="#33291e" text-anchor="middle" font-weight="bold">9</text><text x="283.6" y="96.2" font-size="15" fill="#33291e" text-anchor="middle" font-weight="bold">4</text><text x="339.2" y="138.3" font-size="15" fill="#33291e" text-anchor="middle" font-weight="bold">?</text><text x="240" y="305" font-size="15" fill="#33291e" text-anchor="middle" font-weight="bold">DE ∥ BC，截出相似三角形</text></svg>
