<svg xmlns="http://www.w3.org/2000/svg" viewBox="0 0 480 320" font-family="'Noto Sans TC','PingFang TC','Microsoft JhengHei',sans-serif"><rect width="480" height="320" rx="10" fill="#faf6ec"/><line x1="40" y1="250" x2="448" y2="250" stroke="#33291e" stroke-width="2.5"  stroke-linecap="round"/><line x1="62" y1="250" x2="62" y2="188" stroke="#33291e" stroke-width="2.5"  stroke-linecap="round"/><line x1="62" y1="188" x2="146" y2="250" stroke="#33291e" stroke-width="2.5"  stroke-linecap="round"/><line x1="62" y1="250" x2="146" y2="250" stroke="#33291e" stroke-width="1.6" stroke-dasharray="1 0" stroke-linecap="round"/><polyline points="73,250 73,239 62,239" fill="none" stroke="#33291e" stroke-width="1.8" stroke-linejoin="round" stroke-linecap="round"/><line x1="232" y1="250" x2="232" y2="134" stroke="#33291e" stroke-width="2.5"  stroke-linecap="round"/><line x1="232" y1="134" x2="388" y2="250" stroke="#33291e" stroke-width="2.5"  stroke-linecap="round"/><line x1="232" y1="250" x2="388" y2="250" stroke="#33291e" stroke-width="1.6" stroke-dasharray="1 0" stroke-linecap="round"/><polyline points="243,250 243,239 232,239" fill="none" stroke="#33291e" stroke-width="1.8" stroke-linejoin="round" stroke-linecap="round"/><circle cx="430" cy="46" r="13" fill="#f2d9a6" stroke="#33291e" stroke-width="1.6"/><line x1="446" y1="46" x2="452" y2="46" stroke="#33291e" stroke-width="1.4"  stroke-linecap="round"/><line x1="441.3" y1="34.7" x2="445.6" y2="30.4" stroke="#33291e" stroke-width="1.4"  stroke-linecap="round"/><line x1="430" y1="30" x2="430" y2="24" stroke="#33291e" stroke-width="1.4"  stroke-linecap="round"/><line x1="418.7" y1="34.7" x2="414.4" y2="30.4" stroke="#33291e" stroke-width="1.4"  stroke-linecap="round"/><line x1="414" y1="46" x2="408" y2="46" stroke="#33291e" stroke-width="1.4"  stroke-linecap="round"/><line x1="418.7" y1="57.3" x2="414.4" y2="61.6" stroke="#33291e" stroke-width="1.4"  stroke-linecap="round"/><line x1="430" y1="62" x2="430" y2="68" stroke="#33291e" stroke-width="1.4"  stroke-linecap="round"/><line x1="441.3" y1="57.3" x2="445.6" y2="61.6" stroke="#33291e" stroke-width="1.4"  stroke-linecap="round"/><text x="46" y="224" font-size="15" fill="#33291e" text-anchor="middle" font-weight="bold">3</text><text x="104" y="270" font-size="15" fill="#33291e" text-anchor="middle" font-weight="bold">4</text><text x="214" y="197" font-size="15" fill="#33291e" text-anchor="middle" font-weight="bold">?</text><text x="310" y="270" font-size="15" fill="#33291e" text-anchor="middle" font-weight="bold">20</text><text x="240" y="305" font-size="15" fill="#33291e" text-anchor="middle" font-weight="bold">同一時刻，物高與影長成比例</text></svg>
