<svg xmlns="http://www.w3.org/2000/svg" viewBox="0 0 480 320" font-family="'Noto Sans TC','PingFang TC','Microsoft JhengHei',sans-serif"><rect width="480" height="320" rx="10" fill="#faf6ec"/><line x1="64" y1="250" x2="452" y2="250" stroke="#ddd0b8" stroke-width="1"  stroke-linecap="round"/><text x="56" y="255" font-size="12" fill="#6b5c45" text-anchor="end" font-weight="normal">0</text><line x1="64" y1="180" x2="452" y2="180" stroke="#ddd0b8" stroke-width="1"  stroke-linecap="round"/><text x="56" y="185" font-size="12" fill="#6b5c45" text-anchor="end" font-weight="normal">50</text><line x1="64" y1="110" x2="452" y2="110" stroke="#ddd0b8" stroke-width="1"  stroke-linecap="round"/><text x="56" y="115" font-size="12" fill="#6b5c45" text-anchor="end" font-weight="normal">100</text><line x1="64" y1="40" x2="452" y2="40" stroke="#ddd0b8" stroke-width="1"  stroke-linecap="round"/><text x="56" y="45" font-size="12" fill="#6b5c45" text-anchor="end" font-weight="normal">150</text><line x1="64" y1="40" x2="64" y2="250" stroke="#6b5c45" stroke-width="1.5"  stroke-linecap="round"/><line x1="64" y1="250" x2="452" y2="250" stroke="#6b5c45" stroke-width="1.5"  stroke-linecap="round"/><rect x="83.4" y="82" width="58.199999999999996" height="168" fill="#2f6f9f" rx="2"/><text x="112.5" y="76" font-size="13" fill="#33291e" text-anchor="middle" font-weight="bold">120</text><text x="112.5" y="268" font-size="13" fill="#33291e" text-anchor="middle" font-weight="normal">一</text><rect x="180.4" y="40" width="58.199999999999996" height="210" fill="#2f6f9f" rx="2"/><text x="209.5" y="34" font-size="13" fill="#33291e" text-anchor="middle" font-weight="bold">150</text><text x="209.5" y="268" font-size="13" fill="#33291e" text-anchor="middle" font-weight="normal">二</text><rect x="277.4" y="124" width="58.199999999999996" height="126" fill="#2f6f9f" rx="2"/><text x="306.5" y="118" font-size="13" fill="#33291e" text-anchor="middle" font-weight="bold">90</text><text x="306.5" y="268" font-size="13" fill="#33291e" text-anchor="middle" font-weight="normal">三</text><rect x="374.4" y="54" width="58.199999999999996" height="196" fill="#2f6f9f" rx="2"/><text x="403.5" y="48" font-size="13" fill="#33291e" text-anchor="middle" font-weight="bold">140</text><text x="403.5" y="268" font-size="13" fill="#33291e" text-anchor="middle" font-weight="normal">四</text><text x="240" y="300" font-size="16" fill="#33291e" text-anchor="middle" font-weight="bold">四日書展參觀人數（長條圖）</text><text x="452" y="30" font-size="12" fill="#6b5c45" text-anchor="end" font-weight="normal">人</text></svg>