<svg xmlns="http://www.w3.org/2000/svg" viewBox="0 0 480 320" font-family="'Noto Sans TC','PingFang TC','Microsoft JhengHei',sans-serif"><rect width="480" height="320" rx="10" fill="#faf6ec"/><line x1="56" y1="250" x2="452" y2="250" stroke="#ddd0b8" stroke-width="1"  stroke-linecap="round"/><text x="48" y="255" font-size="12" fill="#6b5c45" text-anchor="end" font-weight="normal">0</text><line x1="56" y1="180" x2="452" y2="180" stroke="#ddd0b8" stroke-width="1"  stroke-linecap="round"/><text x="48" y="185" font-size="12" fill="#6b5c45" text-anchor="end" font-weight="normal">50</text><line x1="56" y1="110" x2="452" y2="110" stroke="#ddd0b8" stroke-width="1"  stroke-linecap="round"/><text x="48" y="115" font-size="12" fill="#6b5c45" text-anchor="end" font-weight="normal">100</text><line x1="56" y1="40" x2="452" y2="40" stroke="#ddd0b8" stroke-width="1"  stroke-linecap="round"/><text x="48" y="45" font-size="12" fill="#6b5c45" text-anchor="end" font-weight="normal">150</text><line x1="56" y1="40" x2="56" y2="250" stroke="#6b5c45" stroke-width="1.5"  stroke-linecap="round"/><line x1="56" y1="250" x2="452" y2="250" stroke="#6b5c45" stroke-width="1.5"  stroke-linecap="round"/><path d="M122 138 L188 110 L254 68 L320 82 L386 40" fill="none" stroke="#b5451d" stroke-width="3" stroke-linejoin="round"/><circle cx="122" cy="138" r="4" fill="#b5451d"/><text x="122" y="128" font-size="12" fill="#33291e" text-anchor="middle" font-weight="bold">80</text><text x="122" y="268" font-size="12" fill="#33291e" text-anchor="middle" font-weight="normal">1月</text><circle cx="188" cy="110" r="4" fill="#b5451d"/><text x="188" y="100" font-size="12" fill="#33291e" text-anchor="middle" font-weight="bold">100</text><text x="188" y="268" font-size="12" fill="#33291e" text-anchor="middle" font-weight="normal">2月</text><circle cx="254" cy="68" r="4" fill="#b5451d"/><text x="254" y="58" font-size="12" fill="#33291e" text-anchor="middle" font-weight="bold">130</text><text x="254" y="268" font-size="12" fill="#33291e" text-anchor="middle" font-weight="normal">3月</text><circle cx="320" cy="82" r="4" fill="#b5451d"/><text x="320" y="72" font-size="12" fill="#33291e" text-anchor="middle" font-weight="bold">120</text><text x="320" y="268" font-size="12" fill="#33291e" text-anchor="middle" font-weight="normal">4月</text><circle cx="386" cy="40" r="4" fill="#b5451d"/><text x="386" y="30" font-size="12" fill="#33291e" text-anchor="middle" font-weight="bold">150</text><text x="386" y="268" font-size="12" fill="#33291e" text-anchor="middle" font-weight="normal">5月</text><text x="240" y="300" font-size="16" fill="#33291e" text-anchor="middle" font-weight="bold">五個月銷售量（折線圖）</text><text x="452" y="30" font-size="12" fill="#6b5c45" text-anchor="end" font-weight="normal">件</text></svg>