<svg xmlns="http://www.w3.org/2000/svg" viewBox="0 0 480 320" font-family="'Noto Sans TC','PingFang TC','Microsoft JhengHei',sans-serif"><rect width="480" height="320" rx="10" fill="#faf6ec"/><path d="M 150 160 L 150.0 52.0 A 108 108 0 0 1 213.5 247.4 Z" fill="#5a8a4a" stroke="#faf6ec" stroke-width="2"/><text x="213.68274433112347" y="144.30822205665353" font-size="14" fill="#fff" text-anchor="middle" font-weight="bold">40%</text><rect x="320" y="58" width="16" height="16" fill="#5a8a4a" rx="2"/><text x="344" y="71" font-size="15" fill="#33291e" text-anchor="start" font-weight="normal">食 40%</text><path d="M 150 160 L 213.5 247.4 A 108 108 0 0 1 47.3 193.4 Z" fill="#c99a2e" stroke="#faf6ec" stroke-width="2"/><text x="129.30822205665353" y="228.68274433112347" font-size="14" fill="#fff" text-anchor="middle" font-weight="bold">30%</text><rect x="320" y="92" width="16" height="16" fill="#c99a2e" rx="2"/><text x="344" y="105" font-size="15" fill="#33291e" text-anchor="start" font-weight="normal">住 30%</text><path d="M 150 160 L 47.3 193.4 A 108 108 0 0 1 62.6 96.5 Z" fill="#2f6f9f" stroke="#faf6ec" stroke-width="2"/><text x="83.86438871374958" y="154.52514822090615" font-size="14" fill="#fff" text-anchor="middle" font-weight="bold">15%</text><rect x="320" y="126" width="16" height="16" fill="#2f6f9f" rx="2"/><text x="344" y="139" font-size="15" fill="#33291e" text-anchor="start" font-weight="normal">衣 15%</text><path d="M 150 160 L 62.6 96.5 A 108 108 0 0 1 150.0 52.0 Z" fill="#b5451d" stroke="#faf6ec" stroke-width="2"/><text x="119.60079613743994" y="105.3382031403469" font-size="14" fill="#fff" text-anchor="middle" font-weight="bold">15%</text><rect x="320" y="160" width="16" height="16" fill="#b5451d" rx="2"/><text x="344" y="173" font-size="15" fill="#33291e" text-anchor="start" font-weight="normal">行 15%</text><text x="240" y="306" font-size="16" fill="#33291e" text-anchor="middle" font-weight="bold">家庭支出比例（總 20000 元）</text></svg>