<svg xmlns="http://www.w3.org/2000/svg" viewBox="0 0 480 320" font-family="'Noto Sans TC','PingFang TC','Microsoft JhengHei',sans-serif"><rect width="480" height="320" rx="10" fill="#faf6ec"/><polygon points="235.0,200.0 269.0,218.0 235.0,236.0 201.0,218.0" fill="none" stroke="#ddd0b8" stroke-width="1"/><polygon points="269.0,182.0 235.0,200.0 235.0,236.0 269.0,218.0" fill="#ccb488" stroke="#6b5738" stroke-width="1.4" stroke-linejoin="round"/><polygon points="201.0,182.0 235.0,200.0 235.0,236.0 201.0,218.0" fill="#b89a6a" stroke="#6b5738" stroke-width="1.4" stroke-linejoin="round"/><polygon points="235.0,164.0 269.0,182.0 235.0,200.0 201.0,182.0" fill="#e8d9b5" stroke="#6b5738" stroke-width="1.4" stroke-linejoin="round"/><polygon points="269.0,146.0 235.0,164.0 235.0,200.0 269.0,182.0" fill="#ccb488" stroke="#6b5738" stroke-width="1.4" stroke-linejoin="round"/><polygon points="201.0,146.0 235.0,164.0 235.0,200.0 201.0,182.0" fill="#b89a6a" stroke="#6b5738" stroke-width="1.4" stroke-linejoin="round"/><polygon points="235.0,128.0 269.0,146.0 235.0,164.0 201.0,146.0" fill="#e8d9b5" stroke="#6b5738" stroke-width="1.4" stroke-linejoin="round"/><polygon points="269.0,110.0 235.0,128.0 235.0,164.0 269.0,146.0" fill="#ccb488" stroke="#6b5738" stroke-width="1.4" stroke-linejoin="round"/><polygon points="201.0,110.0 235.0,128.0 235.0,164.0 201.0,146.0" fill="#b89a6a" stroke="#6b5738" stroke-width="1.4" stroke-linejoin="round"/><polygon points="235.0,92.0 269.0,110.0 235.0,128.0 201.0,110.0" fill="#e8d9b5" stroke="#6b5738" stroke-width="1.4" stroke-linejoin="round"/><text x="240" y="268" font-size="16" fill="#33291e" text-anchor="middle" font-weight="bold">三方塊疊在同一底格（高 3）</text></svg>