<svg xmlns="http://www.w3.org/2000/svg" viewBox="0 0 480 320" font-family="'Noto Sans TC','PingFang TC','Microsoft JhengHei',sans-serif"><rect width="480" height="320" rx="10" fill="#faf6ec"/><polygon points="150.0,118.0 176.0,132.0 150.0,146.0 124.0,132.0" fill="none" stroke="#ddd0b8" stroke-width="1"/><polygon points="176.0,132.0 202.0,146.0 176.0,160.0 150.0,146.0" fill="none" stroke="#ddd0b8" stroke-width="1"/><polygon points="202.0,146.0 228.0,160.0 202.0,174.0 176.0,160.0" fill="none" stroke="#ddd0b8" stroke-width="1"/><polygon points="228.0,160.0 254.0,174.0 228.0,188.0 202.0,174.0" fill="none" stroke="#ddd0b8" stroke-width="1"/><polygon points="124.0,132.0 150.0,146.0 124.0,160.0 98.0,146.0" fill="none" stroke="#ddd0b8" stroke-width="1"/><polygon points="150.0,146.0 176.0,160.0 150.0,174.0 124.0,160.0" fill="none" stroke="#ddd0b8" stroke-width="1"/><polygon points="176.0,160.0 202.0,174.0 176.0,188.0 150.0,174.0" fill="none" stroke="#ddd0b8" stroke-width="1"/><polygon points="202.0,174.0 228.0,188.0 202.0,202.0 176.0,188.0" fill="none" stroke="#ddd0b8" stroke-width="1"/><polygon points="176.0,106.0 150.0,120.0 150.0,146.0 176.0,132.0" fill="#ccb488" stroke="#6b5738" stroke-width="1.4" stroke-linejoin="round"/><polygon points="124.0,106.0 150.0,120.0 150.0,146.0 124.0,132.0" fill="#b89a6a" stroke="#6b5738" stroke-width="1.4" stroke-linejoin="round"/><polygon points="150.0,92.0 176.0,106.0 150.0,120.0 124.0,106.0" fill="#e8d9b5" stroke="#6b5738" stroke-width="1.4" stroke-linejoin="round"/><polygon points="176.0,80.0 150.0,94.0 150.0,120.0 176.0,106.0" fill="#ccb488" stroke="#6b5738" stroke-width="1.4" stroke-linejoin="round"/><polygon points="124.0,80.0 150.0,94.0 150.0,120.0 124.0,106.0" fill="#b89a6a" stroke="#6b5738" stroke-width="1.4" stroke-linejoin="round"/><polygon points="150.0,66.0 176.0,80.0 150.0,94.0 124.0,80.0" fill="#e8d9b5" stroke="#6b5738" stroke-width="1.4" stroke-linejoin="round"/><polygon points="176.0,54.0 150.0,68.0 150.0,94.0 176.0,80.0" fill="#ccb488" stroke="#6b5738" stroke-width="1.4" stroke-linejoin="round"/><polygon points="124.0,54.0 150.0,68.0 150.0,94.0 124.0,80.0" fill="#b89a6a" stroke="#6b5738" stroke-width="1.4" stroke-linejoin="round"/><polygon points="150.0,40.0 176.0,54.0 150.0,68.0 124.0,54.0" fill="#e8d9b5" stroke="#6b5738" stroke-width="1.4" stroke-linejoin="round"/><polygon points="202.0,120.0 176.0,134.0 176.0,160.0 202.0,146.0" fill="#ccb488" stroke="#6b5738" stroke-width="1.4" stroke-linejoin="round"/><polygon points="150.0,120.0 176.0,134.0 176.0,160.0 150.0,146.0" fill="#b89a6a" stroke="#6b5738" stroke-width="1.4" stroke-linejoin="round"/><polygon points="176.0,106.0 202.0,120.0 176.0,134.0 150.0,120.0" fill="#e8d9b5" stroke="#6b5738" stroke-width="1.4" stroke-linejoin="round"/><polygon points="150.0,120.0 124.0,134.0 124.0,160.0 150.0,146.0" fill="#ccb488" stroke="#6b5738" stroke-width="1.4" stroke-linejoin="round"/><polygon points="98.0,120.0 124.0,134.0 124.0,160.0 98.0,146.0" fill="#b89a6a" stroke="#6b5738" stroke-width="1.4" stroke-linejoin="round"/><polygon points="124.0,106.0 150.0,120.0 124.0,134.0 98.0,120.0" fill="#e8d9b5" stroke="#6b5738" stroke-width="1.4" stroke-linejoin="round"/><polygon points="202.0,94.0 176.0,108.0 176.0,134.0 202.0,120.0" fill="#ccb488" stroke="#6b5738" stroke-width="1.4" stroke-linejoin="round"/><polygon points="150.0,94.0 176.0,108.0 176.0,134.0 150.0,120.0" fill="#b89a6a" stroke="#6b5738" stroke-width="1.4" stroke-linejoin="round"/><polygon points="176.0,80.0 202.0,94.0 176.0,108.0 150.0,94.0" fill="#e8d9b5" stroke="#6b5738" stroke-width="1.4" stroke-linejoin="round"/><polygon points="150.0,94.0 124.0,108.0 124.0,134.0 150.0,120.0" fill="#ccb488" stroke="#6b5738" stroke-width="1.4" stroke-linejoin="round"/><polygon points="98.0,94.0 124.0,108.0 124.0,134.0 98.0,120.0" fill="#b89a6a" stroke="#6b5738" stroke-width="1.4" stroke-linejoin="round"/><polygon points="124.0,80.0 150.0,94.0 124.0,108.0 98.0,94.0" fill="#e8d9b5" stroke="#6b5738" stroke-width="1.4" stroke-linejoin="round"/><polygon points="202.0,68.0 176.0,82.0 176.0,108.0 202.0,94.0" fill="#ccb488" stroke="#6b5738" stroke-width="1.4" stroke-linejoin="round"/><polygon points="150.0,68.0 176.0,82.0 176.0,108.0 150.0,94.0" fill="#b89a6a" stroke="#6b5738" stroke-width="1.4" stroke-linejoin="round"/><polygon points="176.0,54.0 202.0,68.0 176.0,82.0 150.0,68.0" fill="#e8d9b5" stroke="#6b5738" stroke-width="1.4" stroke-linejoin="round"/><polygon points="150.0,68.0 124.0,82.0 124.0,108.0 150.0,94.0" fill="#ccb488" stroke="#6b5738" stroke-width="1.4" stroke-linejoin="round"/><polygon points="98.0,68.0 124.0,82.0 124.0,108.0 98.0,94.0" fill="#b89a6a" stroke="#6b5738" stroke-width="1.4" stroke-linejoin="round"/><polygon points="124.0,54.0 150.0,68.0 124.0,82.0 98.0,68.0" fill="#e8d9b5" stroke="#6b5738" stroke-width="1.4" stroke-linejoin="round"/><polygon points="228.0,134.0 202.0,148.0 202.0,174.0 228.0,160.0" fill="#ccb488" stroke="#6b5738" stroke-width="1.4" stroke-linejoin="round"/><polygon points="176.0,134.0 202.0,148.0 202.0,174.0 176.0,160.0" fill="#b89a6a" stroke="#6b5738" stroke-width="1.4" stroke-linejoin="round"/><polygon points="202.0,120.0 228.0,134.0 202.0,148.0 176.0,134.0" fill="#e8d9b5" stroke="#6b5738" stroke-width="1.4" stroke-linejoin="round"/><polygon points="176.0,134.0 150.0,148.0 150.0,174.0 176.0,160.0" fill="#ccb488" stroke="#6b5738" stroke-width="1.4" stroke-linejoin="round"/><polygon points="124.0,134.0 150.0,148.0 150.0,174.0 124.0,160.0" fill="#b89a6a" stroke="#6b5738" stroke-width="1.4" stroke-linejoin="round"/><polygon points="150.0,120.0 176.0,134.0 150.0,148.0 124.0,134.0" fill="#e8d9b5" stroke="#6b5738" stroke-width="1.4" stroke-linejoin="round"/><polygon points="228.0,108.0 202.0,122.0 202.0,148.0 228.0,134.0" fill="#ccb488" stroke="#6b5738" stroke-width="1.4" stroke-linejoin="round"/><polygon points="176.0,108.0 202.0,122.0 202.0,148.0 176.0,134.0" fill="#b89a6a" stroke="#6b5738" stroke-width="1.4" stroke-linejoin="round"/><polygon points="202.0,94.0 228.0,108.0 202.0,122.0 176.0,108.0" fill="#e8d9b5" stroke="#6b5738" stroke-width="1.4" stroke-linejoin="round"/><polygon points="176.0,108.0 150.0,122.0 150.0,148.0 176.0,134.0" fill="#ccb488" stroke="#6b5738" stroke-width="1.4" stroke-linejoin="round"/><polygon points="124.0,108.0 150.0,122.0 150.0,148.0 124.0,134.0" fill="#b89a6a" stroke="#6b5738" stroke-width="1.4" stroke-linejoin="round"/><polygon points="150.0,94.0 176.0,108.0 150.0,122.0 124.0,108.0" fill="#e8d9b5" stroke="#6b5738" stroke-width="1.4" stroke-linejoin="round"/><polygon points="228.0,82.0 202.0,96.0 202.0,122.0 228.0,108.0" fill="#ccb488" stroke="#6b5738" stroke-width="1.4" stroke-linejoin="round"/><polygon points="176.0,82.0 202.0,96.0 202.0,122.0 176.0,108.0" fill="#b89a6a" stroke="#6b5738" stroke-width="1.4" stroke-linejoin="round"/><polygon points="202.0,68.0 228.0,82.0 202.0,96.0 176.0,82.0" fill="#e8d9b5" stroke="#6b5738" stroke-width="1.4" stroke-linejoin="round"/><polygon points="176.0,82.0 150.0,96.0 150.0,122.0 176.0,108.0" fill="#ccb488" stroke="#6b5738" stroke-width="1.4" stroke-linejoin="round"/><polygon points="124.0,82.0 150.0,96.0 150.0,122.0 124.0,108.0" fill="#b89a6a" stroke="#6b5738" stroke-width="1.4" stroke-linejoin="round"/><polygon points="150.0,68.0 176.0,82.0 150.0,96.0 124.0,82.0" fill="#e8d9b5" stroke="#6b5738" stroke-width="1.4" stroke-linejoin="round"/><polygon points="254.0,148.0 228.0,162.0 228.0,188.0 254.0,174.0" fill="#ccb488" stroke="#6b5738" stroke-width="1.4" stroke-linejoin="round"/><polygon points="202.0,148.0 228.0,162.0 228.0,188.0 202.0,174.0" fill="#b89a6a" stroke="#6b5738" stroke-width="1.4" stroke-linejoin="round"/><polygon points="228.0,134.0 254.0,148.0 228.0,162.0 202.0,148.0" fill="#e8d9b5" stroke="#6b5738" stroke-width="1.4" stroke-linejoin="round"/><polygon points="202.0,148.0 176.0,162.0 176.0,188.0 202.0,174.0" fill="#ccb488" stroke="#6b5738" stroke-width="1.4" stroke-linejoin="round"/><polygon points="150.0,148.0 176.0,162.0 176.0,188.0 150.0,174.0" fill="#b89a6a" stroke="#6b5738" stroke-width="1.4" stroke-linejoin="round"/><polygon points="176.0,134.0 202.0,148.0 176.0,162.0 150.0,148.0" fill="#e8d9b5" stroke="#6b5738" stroke-width="1.4" stroke-linejoin="round"/><polygon points="254.0,122.0 228.0,136.0 228.0,162.0 254.0,148.0" fill="#ccb488" stroke="#6b5738" stroke-width="1.4" stroke-linejoin="round"/><polygon points="202.0,122.0 228.0,136.0 228.0,162.0 202.0,148.0" fill="#b89a6a" stroke="#6b5738" stroke-width="1.4" stroke-linejoin="round"/><polygon points="228.0,108.0 254.0,122.0 228.0,136.0 202.0,122.0" fill="#e8d9b5" stroke="#6b5738" stroke-width="1.4" stroke-linejoin="round"/><polygon points="202.0,122.0 176.0,136.0 176.0,162.0 202.0,148.0" fill="#ccb488" stroke="#6b5738" stroke-width="1.4" stroke-linejoin="round"/><polygon points="150.0,122.0 176.0,136.0 176.0,162.0 150.0,148.0" fill="#b89a6a" stroke="#6b5738" stroke-width="1.4" stroke-linejoin="round"/><polygon points="176.0,108.0 202.0,122.0 176.0,136.0 150.0,122.0" fill="#e8d9b5" stroke="#6b5738" stroke-width="1.4" stroke-linejoin="round"/><polygon points="254.0,96.0 228.0,110.0 228.0,136.0 254.0,122.0" fill="#ccb488" stroke="#6b5738" stroke-width="1.4" stroke-linejoin="round"/><polygon points="202.0,96.0 228.0,110.0 228.0,136.0 202.0,122.0" fill="#b89a6a" stroke="#6b5738" stroke-width="1.4" stroke-linejoin="round"/><polygon points="228.0,82.0 254.0,96.0 228.0,110.0 202.0,96.0" fill="#e8d9b5" stroke="#6b5738" stroke-width="1.4" stroke-linejoin="round"/><polygon points="202.0,96.0 176.0,110.0 176.0,136.0 202.0,122.0" fill="#ccb488" stroke="#6b5738" stroke-width="1.4" stroke-linejoin="round"/><polygon points="150.0,96.0 176.0,110.0 176.0,136.0 150.0,122.0" fill="#b89a6a" stroke="#6b5738" stroke-width="1.4" stroke-linejoin="round"/><polygon points="176.0,82.0 202.0,96.0 176.0,110.0 150.0,96.0" fill="#e8d9b5" stroke="#6b5738" stroke-width="1.4" stroke-linejoin="round"/><polygon points="228.0,162.0 202.0,176.0 202.0,202.0 228.0,188.0" fill="#ccb488" stroke="#6b5738" stroke-width="1.4" stroke-linejoin="round"/><polygon points="176.0,162.0 202.0,176.0 202.0,202.0 176.0,188.0" fill="#b89a6a" stroke="#6b5738" stroke-width="1.4" stroke-linejoin="round"/><polygon points="202.0,148.0 228.0,162.0 202.0,176.0 176.0,162.0" fill="#e8d9b5" stroke="#6b5738" stroke-width="1.4" stroke-linejoin="round"/><polygon points="228.0,136.0 202.0,150.0 202.0,176.0 228.0,162.0" fill="#ccb488" stroke="#6b5738" stroke-width="1.4" stroke-linejoin="round"/><polygon points="176.0,136.0 202.0,150.0 202.0,176.0 176.0,162.0" fill="#b89a6a" stroke="#6b5738" stroke-width="1.4" stroke-linejoin="round"/><polygon points="202.0,122.0 228.0,136.0 202.0,150.0 176.0,136.0" fill="#e8d9b5" stroke="#6b5738" stroke-width="1.4" stroke-linejoin="round"/><polygon points="228.0,110.0 202.0,124.0 202.0,150.0 228.0,136.0" fill="#ccb488" stroke="#6b5738" stroke-width="1.4" stroke-linejoin="round"/><polygon points="176.0,110.0 202.0,124.0 202.0,150.0 176.0,136.0" fill="#b89a6a" stroke="#6b5738" stroke-width="1.4" stroke-linejoin="round"/><polygon points="202.0,96.0 228.0,110.0 202.0,124.0 176.0,110.0" fill="#e8d9b5" stroke="#6b5738" stroke-width="1.4" stroke-linejoin="round"/><text x="240" y="288" font-size="16" fill="#33291e" text-anchor="middle" font-weight="bold">長方體：寬 4、高 3、深 2</text></svg>