<svg xmlns="http://www.w3.org/2000/svg" viewBox="0 0 480 320" font-family="'Noto Sans TC','PingFang TC','Microsoft JhengHei',sans-serif"><rect width="480" height="320" rx="10" fill="#faf6ec"/><polygon points="235.0,150.0 269.0,168.0 235.0,186.0 201.0,168.0" fill="none" stroke="#ddd0b8" stroke-width="1"/><polygon points="201.0,168.0 235.0,186.0 201.0,204.0 167.0,186.0" fill="none" stroke="#ddd0b8" stroke-width="1"/><polygon points="269.0,134.0 235.0,152.0 235.0,186.0 269.0,168.0" fill="#ccb488" stroke="#6b5738" stroke-width="1.4" stroke-linejoin="round"/><polygon points="201.0,134.0 235.0,152.0 235.0,186.0 201.0,168.0" fill="#b89a6a" stroke="#6b5738" stroke-width="1.4" stroke-linejoin="round"/><polygon points="235.0,116.0 269.0,134.0 235.0,152.0 201.0,134.0" fill="#e8d9b5" stroke="#6b5738" stroke-width="1.4" stroke-linejoin="round"/><polygon points="235.0,152.0 201.0,170.0 201.0,204.0 235.0,186.0" fill="#ccb488" stroke="#6b5738" stroke-width="1.4" stroke-linejoin="round"/><polygon points="167.0,152.0 201.0,170.0 201.0,204.0 167.0,186.0" fill="#b89a6a" stroke="#6b5738" stroke-width="1.4" stroke-linejoin="round"/><polygon points="201.0,134.0 235.0,152.0 201.0,170.0 167.0,152.0" fill="#e8d9b5" stroke="#6b5738" stroke-width="1.4" stroke-linejoin="round"/><text x="240" y="250" font-size="16" fill="#33291e" text-anchor="middle" font-weight="bold">兩方塊前後排成一直線</text><text x="240" y="276" font-size="14" fill="#6b5c45" text-anchor="middle" font-weight="normal">從正面（y 方向）看會前後重疊</text></svg>