<svg xmlns="http://www.w3.org/2000/svg" viewBox="0 0 480 320" font-family="'Noto Sans TC','PingFang TC','Microsoft JhengHei',sans-serif"><rect width="480" height="320" rx="10" fill="#faf6ec"/><polygon points="175.0,120.0 197.0,132.0 175.0,144.0 153.0,132.0" fill="none" stroke="#ddd0b8" stroke-width="1"/><polygon points="197.0,132.0 219.0,144.0 197.0,156.0 175.0,144.0" fill="none" stroke="#ddd0b8" stroke-width="1"/><polygon points="219.0,144.0 241.0,156.0 219.0,168.0 197.0,156.0" fill="none" stroke="#ddd0b8" stroke-width="1"/><polygon points="241.0,156.0 263.0,168.0 241.0,180.0 219.0,168.0" fill="none" stroke="#ddd0b8" stroke-width="1"/><polygon points="263.0,168.0 285.0,180.0 263.0,192.0 241.0,180.0" fill="none" stroke="#ddd0b8" stroke-width="1"/><polygon points="153.0,132.0 175.0,144.0 153.0,156.0 131.0,144.0" fill="none" stroke="#ddd0b8" stroke-width="1"/><polygon points="175.0,144.0 197.0,156.0 175.0,168.0 153.0,156.0" fill="none" stroke="#ddd0b8" stroke-width="1"/><polygon points="197.0,156.0 219.0,168.0 197.0,180.0 175.0,168.0" fill="none" stroke="#ddd0b8" stroke-width="1"/><polygon points="219.0,168.0 241.0,180.0 219.0,192.0 197.0,180.0" fill="none" stroke="#ddd0b8" stroke-width="1"/><polygon points="241.0,180.0 263.0,192.0 241.0,204.0 219.0,192.0" fill="none" stroke="#ddd0b8" stroke-width="1"/><polygon points="131.0,144.0 153.0,156.0 131.0,168.0 109.0,156.0" fill="none" stroke="#ddd0b8" stroke-width="1"/><polygon points="153.0,156.0 175.0,168.0 153.0,180.0 131.0,168.0" fill="none" stroke="#ddd0b8" stroke-width="1"/><polygon points="175.0,168.0 197.0,180.0 175.0,192.0 153.0,180.0" fill="none" stroke="#ddd0b8" stroke-width="1"/><polygon points="197.0,180.0 219.0,192.0 197.0,204.0 175.0,192.0" fill="none" stroke="#ddd0b8" stroke-width="1"/><polygon points="219.0,192.0 241.0,204.0 219.0,216.0 197.0,204.0" fill="none" stroke="#ddd0b8" stroke-width="1"/><polygon points="109.0,156.0 131.0,168.0 109.0,180.0 87.0,168.0" fill="none" stroke="#ddd0b8" stroke-width="1"/><polygon points="131.0,168.0 153.0,180.0 131.0,192.0 109.0,180.0" fill="none" stroke="#ddd0b8" stroke-width="1"/><polygon points="153.0,180.0 175.0,192.0 153.0,204.0 131.0,192.0" fill="none" stroke="#ddd0b8" stroke-width="1"/><polygon points="175.0,192.0 197.0,204.0 175.0,216.0 153.0,204.0" fill="none" stroke="#ddd0b8" stroke-width="1"/><polygon points="197.0,204.0 219.0,216.0 197.0,228.0 175.0,216.0" fill="none" stroke="#ddd0b8" stroke-width="1"/><polygon points="197.0,106.0 175.0,118.0 175.0,144.0 197.0,132.0" fill="#ccb488" stroke="#6b5738" stroke-width="1.4" stroke-linejoin="round"/><polygon points="153.0,106.0 175.0,118.0 175.0,144.0 153.0,132.0" fill="#b89a6a" stroke="#6b5738" stroke-width="1.4" stroke-linejoin="round"/><polygon points="175.0,94.0 197.0,106.0 175.0,118.0 153.0,106.0" fill="#e8d9b5" stroke="#6b5738" stroke-width="1.4" stroke-linejoin="round"/><polygon points="197.0,80.0 175.0,92.0 175.0,118.0 197.0,106.0" fill="#ccb488" stroke="#6b5738" stroke-width="1.4" stroke-linejoin="round"/><polygon points="153.0,80.0 175.0,92.0 175.0,118.0 153.0,106.0" fill="#b89a6a" stroke="#6b5738" stroke-width="1.4" stroke-linejoin="round"/><polygon points="175.0,68.0 197.0,80.0 175.0,92.0 153.0,80.0" fill="#e8d9b5" stroke="#6b5738" stroke-width="1.4" stroke-linejoin="round"/><polygon points="219.0,118.0 197.0,130.0 197.0,156.0 219.0,144.0" fill="#ccb488" stroke="#6b5738" stroke-width="1.4" stroke-linejoin="round"/><polygon points="175.0,118.0 197.0,130.0 197.0,156.0 175.0,144.0" fill="#b89a6a" stroke="#6b5738" stroke-width="1.4" stroke-linejoin="round"/><polygon points="197.0,106.0 219.0,118.0 197.0,130.0 175.0,118.0" fill="#e8d9b5" stroke="#6b5738" stroke-width="1.4" stroke-linejoin="round"/><polygon points="175.0,118.0 153.0,130.0 153.0,156.0 175.0,144.0" fill="#ccb488" stroke="#6b5738" stroke-width="1.4" stroke-linejoin="round"/><polygon points="131.0,118.0 153.0,130.0 153.0,156.0 131.0,144.0" fill="#b89a6a" stroke="#6b5738" stroke-width="1.4" stroke-linejoin="round"/><polygon points="153.0,106.0 175.0,118.0 153.0,130.0 131.0,118.0" fill="#e8d9b5" stroke="#6b5738" stroke-width="1.4" stroke-linejoin="round"/><polygon points="219.0,92.0 197.0,104.0 197.0,130.0 219.0,118.0" fill="#ccb488" stroke="#6b5738" stroke-width="1.4" stroke-linejoin="round"/><polygon points="175.0,92.0 197.0,104.0 197.0,130.0 175.0,118.0" fill="#b89a6a" stroke="#6b5738" stroke-width="1.4" stroke-linejoin="round"/><polygon points="197.0,80.0 219.0,92.0 197.0,104.0 175.0,92.0" fill="#e8d9b5" stroke="#6b5738" stroke-width="1.4" stroke-linejoin="round"/><polygon points="175.0,92.0 153.0,104.0 153.0,130.0 175.0,118.0" fill="#ccb488" stroke="#6b5738" stroke-width="1.4" stroke-linejoin="round"/><polygon points="131.0,92.0 153.0,104.0 153.0,130.0 131.0,118.0" fill="#b89a6a" stroke="#6b5738" stroke-width="1.4" stroke-linejoin="round"/><polygon points="153.0,80.0 175.0,92.0 153.0,104.0 131.0,92.0" fill="#e8d9b5" stroke="#6b5738" stroke-width="1.4" stroke-linejoin="round"/><polygon points="241.0,130.0 219.0,142.0 219.0,168.0 241.0,156.0" fill="#ccb488" stroke="#6b5738" stroke-width="1.4" stroke-linejoin="round"/><polygon points="197.0,130.0 219.0,142.0 219.0,168.0 197.0,156.0" fill="#b89a6a" stroke="#6b5738" stroke-width="1.4" stroke-linejoin="round"/><polygon points="219.0,118.0 241.0,130.0 219.0,142.0 197.0,130.0" fill="#e8d9b5" stroke="#6b5738" stroke-width="1.4" stroke-linejoin="round"/><polygon points="197.0,130.0 175.0,142.0 175.0,168.0 197.0,156.0" fill="#ccb488" stroke="#6b5738" stroke-width="1.4" stroke-linejoin="round"/><polygon points="153.0,130.0 175.0,142.0 175.0,168.0 153.0,156.0" fill="#b89a6a" stroke="#6b5738" stroke-width="1.4" stroke-linejoin="round"/><polygon points="175.0,118.0 197.0,130.0 175.0,142.0 153.0,130.0" fill="#e8d9b5" stroke="#6b5738" stroke-width="1.4" stroke-linejoin="round"/><polygon points="153.0,130.0 131.0,142.0 131.0,168.0 153.0,156.0" fill="#ccb488" stroke="#6b5738" stroke-width="1.4" stroke-linejoin="round"/><polygon points="109.0,130.0 131.0,142.0 131.0,168.0 109.0,156.0" fill="#b89a6a" stroke="#6b5738" stroke-width="1.4" stroke-linejoin="round"/><polygon points="131.0,118.0 153.0,130.0 131.0,142.0 109.0,130.0" fill="#e8d9b5" stroke="#6b5738" stroke-width="1.4" stroke-linejoin="round"/><polygon points="241.0,104.0 219.0,116.0 219.0,142.0 241.0,130.0" fill="#ccb488" stroke="#6b5738" stroke-width="1.4" stroke-linejoin="round"/><polygon points="197.0,104.0 219.0,116.0 219.0,142.0 197.0,130.0" fill="#b89a6a" stroke="#6b5738" stroke-width="1.4" stroke-linejoin="round"/><polygon points="219.0,92.0 241.0,104.0 219.0,116.0 197.0,104.0" fill="#e8d9b5" stroke="#6b5738" stroke-width="1.4" stroke-linejoin="round"/><polygon points="197.0,104.0 175.0,116.0 175.0,142.0 197.0,130.0" fill="#ccb488" stroke="#6b5738" stroke-width="1.4" stroke-linejoin="round"/><polygon points="153.0,104.0 175.0,116.0 175.0,142.0 153.0,130.0" fill="#b89a6a" stroke="#6b5738" stroke-width="1.4" stroke-linejoin="round"/><polygon points="175.0,92.0 197.0,104.0 175.0,116.0 153.0,104.0" fill="#e8d9b5" stroke="#6b5738" stroke-width="1.4" stroke-linejoin="round"/><polygon points="153.0,104.0 131.0,116.0 131.0,142.0 153.0,130.0" fill="#ccb488" stroke="#6b5738" stroke-width="1.4" stroke-linejoin="round"/><polygon points="109.0,104.0 131.0,116.0 131.0,142.0 109.0,130.0" fill="#b89a6a" stroke="#6b5738" stroke-width="1.4" stroke-linejoin="round"/><polygon points="131.0,92.0 153.0,104.0 131.0,116.0 109.0,104.0" fill="#e8d9b5" stroke="#6b5738" stroke-width="1.4" stroke-linejoin="round"/><polygon points="263.0,142.0 241.0,154.0 241.0,180.0 263.0,168.0" fill="#ccb488" stroke="#6b5738" stroke-width="1.4" stroke-linejoin="round"/><polygon points="219.0,142.0 241.0,154.0 241.0,180.0 219.0,168.0" fill="#b89a6a" stroke="#6b5738" stroke-width="1.4" stroke-linejoin="round"/><polygon points="241.0,130.0 263.0,142.0 241.0,154.0 219.0,142.0" fill="#e8d9b5" stroke="#6b5738" stroke-width="1.4" stroke-linejoin="round"/><polygon points="219.0,142.0 197.0,154.0 197.0,180.0 219.0,168.0" fill="#ccb488" stroke="#6b5738" stroke-width="1.4" stroke-linejoin="round"/><polygon points="175.0,142.0 197.0,154.0 197.0,180.0 175.0,168.0" fill="#b89a6a" stroke="#6b5738" stroke-width="1.4" stroke-linejoin="round"/><polygon points="197.0,130.0 219.0,142.0 197.0,154.0 175.0,142.0" fill="#e8d9b5" stroke="#6b5738" stroke-width="1.4" stroke-linejoin="round"/><polygon points="175.0,142.0 153.0,154.0 153.0,180.0 175.0,168.0" fill="#ccb488" stroke="#6b5738" stroke-width="1.4" stroke-linejoin="round"/><polygon points="131.0,142.0 153.0,154.0 153.0,180.0 131.0,168.0" fill="#b89a6a" stroke="#6b5738" stroke-width="1.4" stroke-linejoin="round"/><polygon points="153.0,130.0 175.0,142.0 153.0,154.0 131.0,142.0" fill="#e8d9b5" stroke="#6b5738" stroke-width="1.4" stroke-linejoin="round"/><polygon points="131.0,142.0 109.0,154.0 109.0,180.0 131.0,168.0" fill="#ccb488" stroke="#6b5738" stroke-width="1.4" stroke-linejoin="round"/><polygon points="87.0,142.0 109.0,154.0 109.0,180.0 87.0,168.0" fill="#b89a6a" stroke="#6b5738" stroke-width="1.4" stroke-linejoin="round"/><polygon points="109.0,130.0 131.0,142.0 109.0,154.0 87.0,142.0" fill="#e8d9b5" stroke="#6b5738" stroke-width="1.4" stroke-linejoin="round"/><polygon points="263.0,116.0 241.0,128.0 241.0,154.0 263.0,142.0" fill="#ccb488" stroke="#6b5738" stroke-width="1.4" stroke-linejoin="round"/><polygon points="219.0,116.0 241.0,128.0 241.0,154.0 219.0,142.0" fill="#b89a6a" stroke="#6b5738" stroke-width="1.4" stroke-linejoin="round"/><polygon points="241.0,104.0 263.0,116.0 241.0,128.0 219.0,116.0" fill="#e8d9b5" stroke="#6b5738" stroke-width="1.4" stroke-linejoin="round"/><polygon points="219.0,116.0 197.0,128.0 197.0,154.0 219.0,142.0" fill="#ccb488" stroke="#6b5738" stroke-width="1.4" stroke-linejoin="round"/><polygon points="175.0,116.0 197.0,128.0 197.0,154.0 175.0,142.0" fill="#b89a6a" stroke="#6b5738" stroke-width="1.4" stroke-linejoin="round"/><polygon points="197.0,104.0 219.0,116.0 197.0,128.0 175.0,116.0" fill="#e8d9b5" stroke="#6b5738" stroke-width="1.4" stroke-linejoin="round"/><polygon points="175.0,116.0 153.0,128.0 153.0,154.0 175.0,142.0" fill="#ccb488" stroke="#6b5738" stroke-width="1.4" stroke-linejoin="round"/><polygon points="131.0,116.0 153.0,128.0 153.0,154.0 131.0,142.0" fill="#b89a6a" stroke="#6b5738" stroke-width="1.4" stroke-linejoin="round"/><polygon points="153.0,104.0 175.0,116.0 153.0,128.0 131.0,116.0" fill="#e8d9b5" stroke="#6b5738" stroke-width="1.4" stroke-linejoin="round"/><polygon points="131.0,116.0 109.0,128.0 109.0,154.0 131.0,142.0" fill="#ccb488" stroke="#6b5738" stroke-width="1.4" stroke-linejoin="round"/><polygon points="87.0,116.0 109.0,128.0 109.0,154.0 87.0,142.0" fill="#b89a6a" stroke="#6b5738" stroke-width="1.4" stroke-linejoin="round"/><polygon points="109.0,104.0 131.0,116.0 109.0,128.0 87.0,116.0" fill="#e8d9b5" stroke="#6b5738" stroke-width="1.4" stroke-linejoin="round"/><polygon points="285.0,154.0 263.0,166.0 263.0,192.0 285.0,180.0" fill="#ccb488" stroke="#6b5738" stroke-width="1.4" stroke-linejoin="round"/><polygon points="241.0,154.0 263.0,166.0 263.0,192.0 241.0,180.0" fill="#b89a6a" stroke="#6b5738" stroke-width="1.4" stroke-linejoin="round"/><polygon points="263.0,142.0 285.0,154.0 263.0,166.0 241.0,154.0" fill="#e8d9b5" stroke="#6b5738" stroke-width="1.4" stroke-linejoin="round"/><polygon points="241.0,154.0 219.0,166.0 219.0,192.0 241.0,180.0" fill="#ccb488" stroke="#6b5738" stroke-width="1.4" stroke-linejoin="round"/><polygon points="197.0,154.0 219.0,166.0 219.0,192.0 197.0,180.0" fill="#b89a6a" stroke="#6b5738" stroke-width="1.4" stroke-linejoin="round"/><polygon points="219.0,142.0 241.0,154.0 219.0,166.0 197.0,154.0" fill="#e8d9b5" stroke="#6b5738" stroke-width="1.4" stroke-linejoin="round"/><polygon points="197.0,154.0 175.0,166.0 175.0,192.0 197.0,180.0" fill="#ccb488" stroke="#6b5738" stroke-width="1.4" stroke-linejoin="round"/><polygon points="153.0,154.0 175.0,166.0 175.0,192.0 153.0,180.0" fill="#b89a6a" stroke="#6b5738" stroke-width="1.4" stroke-linejoin="round"/><polygon points="175.0,142.0 197.0,154.0 175.0,166.0 153.0,154.0" fill="#e8d9b5" stroke="#6b5738" stroke-width="1.4" stroke-linejoin="round"/><polygon points="153.0,154.0 131.0,166.0 131.0,192.0 153.0,180.0" fill="#ccb488" stroke="#6b5738" stroke-width="1.4" stroke-linejoin="round"/><polygon points="109.0,154.0 131.0,166.0 131.0,192.0 109.0,180.0" fill="#b89a6a" stroke="#6b5738" stroke-width="1.4" stroke-linejoin="round"/><polygon points="131.0,142.0 153.0,154.0 131.0,166.0 109.0,154.0" fill="#e8d9b5" stroke="#6b5738" stroke-width="1.4" stroke-linejoin="round"/><polygon points="285.0,128.0 263.0,140.0 263.0,166.0 285.0,154.0" fill="#ccb488" stroke="#6b5738" stroke-width="1.4" stroke-linejoin="round"/><polygon points="241.0,128.0 263.0,140.0 263.0,166.0 241.0,154.0" fill="#b89a6a" stroke="#6b5738" stroke-width="1.4" stroke-linejoin="round"/><polygon points="263.0,116.0 285.0,128.0 263.0,140.0 241.0,128.0" fill="#e8d9b5" stroke="#6b5738" stroke-width="1.4" stroke-linejoin="round"/><polygon points="241.0,128.0 219.0,140.0 219.0,166.0 241.0,154.0" fill="#ccb488" stroke="#6b5738" stroke-width="1.4" stroke-linejoin="round"/><polygon points="197.0,128.0 219.0,140.0 219.0,166.0 197.0,154.0" fill="#b89a6a" stroke="#6b5738" stroke-width="1.4" stroke-linejoin="round"/><polygon points="219.0,116.0 241.0,128.0 219.0,140.0 197.0,128.0" fill="#e8d9b5" stroke="#6b5738" stroke-width="1.4" stroke-linejoin="round"/><polygon points="197.0,128.0 175.0,140.0 175.0,166.0 197.0,154.0" fill="#ccb488" stroke="#6b5738" stroke-width="1.4" stroke-linejoin="round"/><polygon points="153.0,128.0 175.0,140.0 175.0,166.0 153.0,154.0" fill="#b89a6a" stroke="#6b5738" stroke-width="1.4" stroke-linejoin="round"/><polygon points="175.0,116.0 197.0,128.0 175.0,140.0 153.0,128.0" fill="#e8d9b5" stroke="#6b5738" stroke-width="1.4" stroke-linejoin="round"/><polygon points="153.0,128.0 131.0,140.0 131.0,166.0 153.0,154.0" fill="#ccb488" stroke="#6b5738" stroke-width="1.4" stroke-linejoin="round"/><polygon points="109.0,128.0 131.0,140.0 131.0,166.0 109.0,154.0" fill="#b89a6a" stroke="#6b5738" stroke-width="1.4" stroke-linejoin="round"/><polygon points="131.0,116.0 153.0,128.0 131.0,140.0 109.0,128.0" fill="#e8d9b5" stroke="#6b5738" stroke-width="1.4" stroke-linejoin="round"/><polygon points="263.0,166.0 241.0,178.0 241.0,204.0 263.0,192.0" fill="#ccb488" stroke="#6b5738" stroke-width="1.4" stroke-linejoin="round"/><polygon points="219.0,166.0 241.0,178.0 241.0,204.0 219.0,192.0" fill="#b89a6a" stroke="#6b5738" stroke-width="1.4" stroke-linejoin="round"/><polygon points="241.0,154.0 263.0,166.0 241.0,178.0 219.0,166.0" fill="#e8d9b5" stroke="#6b5738" stroke-width="1.4" stroke-linejoin="round"/><polygon points="219.0,166.0 197.0,178.0 197.0,204.0 219.0,192.0" fill="#ccb488" stroke="#6b5738" stroke-width="1.4" stroke-linejoin="round"/><polygon points="175.0,166.0 197.0,178.0 197.0,204.0 175.0,192.0" fill="#b89a6a" stroke="#6b5738" stroke-width="1.4" stroke-linejoin="round"/><polygon points="197.0,154.0 219.0,166.0 197.0,178.0 175.0,166.0" fill="#e8d9b5" stroke="#6b5738" stroke-width="1.4" stroke-linejoin="round"/><polygon points="175.0,166.0 153.0,178.0 153.0,204.0 175.0,192.0" fill="#ccb488" stroke="#6b5738" stroke-width="1.4" stroke-linejoin="round"/><polygon points="131.0,166.0 153.0,178.0 153.0,204.0 131.0,192.0" fill="#b89a6a" stroke="#6b5738" stroke-width="1.4" stroke-linejoin="round"/><polygon points="153.0,154.0 175.0,166.0 153.0,178.0 131.0,166.0" fill="#e8d9b5" stroke="#6b5738" stroke-width="1.4" stroke-linejoin="round"/><polygon points="263.0,140.0 241.0,152.0 241.0,178.0 263.0,166.0" fill="#ccb488" stroke="#6b5738" stroke-width="1.4" stroke-linejoin="round"/><polygon points="219.0,140.0 241.0,152.0 241.0,178.0 219.0,166.0" fill="#b89a6a" stroke="#6b5738" stroke-width="1.4" stroke-linejoin="round"/><polygon points="241.0,128.0 263.0,140.0 241.0,152.0 219.0,140.0" fill="#e8d9b5" stroke="#6b5738" stroke-width="1.4" stroke-linejoin="round"/><polygon points="219.0,140.0 197.0,152.0 197.0,178.0 219.0,166.0" fill="#ccb488" stroke="#6b5738" stroke-width="1.4" stroke-linejoin="round"/><polygon points="175.0,140.0 197.0,152.0 197.0,178.0 175.0,166.0" fill="#b89a6a" stroke="#6b5738" stroke-width="1.4" stroke-linejoin="round"/><polygon points="197.0,128.0 219.0,140.0 197.0,152.0 175.0,140.0" fill="#e8d9b5" stroke="#6b5738" stroke-width="1.4" stroke-linejoin="round"/><polygon points="175.0,140.0 153.0,152.0 153.0,178.0 175.0,166.0" fill="#ccb488" stroke="#6b5738" stroke-width="1.4" stroke-linejoin="round"/><polygon points="131.0,140.0 153.0,152.0 153.0,178.0 131.0,166.0" fill="#b89a6a" stroke="#6b5738" stroke-width="1.4" stroke-linejoin="round"/><polygon points="153.0,128.0 175.0,140.0 153.0,152.0 131.0,140.0" fill="#e8d9b5" stroke="#6b5738" stroke-width="1.4" stroke-linejoin="round"/><polygon points="241.0,178.0 219.0,190.0 219.0,216.0 241.0,204.0" fill="#ccb488" stroke="#6b5738" stroke-width="1.4" stroke-linejoin="round"/><polygon points="197.0,178.0 219.0,190.0 219.0,216.0 197.0,204.0" fill="#b89a6a" stroke="#6b5738" stroke-width="1.4" stroke-linejoin="round"/><polygon points="219.0,166.0 241.0,178.0 219.0,190.0 197.0,178.0" fill="#e8d9b5" stroke="#6b5738" stroke-width="1.4" stroke-linejoin="round"/><polygon points="197.0,178.0 175.0,190.0 175.0,216.0 197.0,204.0" fill="#ccb488" stroke="#6b5738" stroke-width="1.4" stroke-linejoin="round"/><polygon points="153.0,178.0 175.0,190.0 175.0,216.0 153.0,204.0" fill="#b89a6a" stroke="#6b5738" stroke-width="1.4" stroke-linejoin="round"/><polygon points="175.0,166.0 197.0,178.0 175.0,190.0 153.0,178.0" fill="#e8d9b5" stroke="#6b5738" stroke-width="1.4" stroke-linejoin="round"/><polygon points="241.0,152.0 219.0,164.0 219.0,190.0 241.0,178.0" fill="#ccb488" stroke="#6b5738" stroke-width="1.4" stroke-linejoin="round"/><polygon points="197.0,152.0 219.0,164.0 219.0,190.0 197.0,178.0" fill="#b89a6a" stroke="#6b5738" stroke-width="1.4" stroke-linejoin="round"/><polygon points="219.0,140.0 241.0,152.0 219.0,164.0 197.0,152.0" fill="#e8d9b5" stroke="#6b5738" stroke-width="1.4" stroke-linejoin="round"/><polygon points="197.0,152.0 175.0,164.0 175.0,190.0 197.0,178.0" fill="#ccb488" stroke="#6b5738" stroke-width="1.4" stroke-linejoin="round"/><polygon points="153.0,152.0 175.0,164.0 175.0,190.0 153.0,178.0" fill="#b89a6a" stroke="#6b5738" stroke-width="1.4" stroke-linejoin="round"/><polygon points="175.0,140.0 197.0,152.0 175.0,164.0 153.0,152.0" fill="#e8d9b5" stroke="#6b5738" stroke-width="1.4" stroke-linejoin="round"/><polygon points="219.0,190.0 197.0,202.0 197.0,228.0 219.0,216.0" fill="#ccb488" stroke="#6b5738" stroke-width="1.4" stroke-linejoin="round"/><polygon points="175.0,190.0 197.0,202.0 197.0,228.0 175.0,216.0" fill="#b89a6a" stroke="#6b5738" stroke-width="1.4" stroke-linejoin="round"/><polygon points="197.0,178.0 219.0,190.0 197.0,202.0 175.0,190.0" fill="#e8d9b5" stroke="#6b5738" stroke-width="1.4" stroke-linejoin="round"/><polygon points="219.0,164.0 197.0,176.0 197.0,202.0 219.0,190.0" fill="#ccb488" stroke="#6b5738" stroke-width="1.4" stroke-linejoin="round"/><polygon points="175.0,164.0 197.0,176.0 197.0,202.0 175.0,190.0" fill="#b89a6a" stroke="#6b5738" stroke-width="1.4" stroke-linejoin="round"/><polygon points="197.0,152.0 219.0,164.0 197.0,176.0 175.0,164.0" fill="#e8d9b5" stroke="#6b5738" stroke-width="1.4" stroke-linejoin="round"/><text x="240" y="292" font-size="16" fill="#33291e" text-anchor="middle" font-weight="bold">長方體：寬 5、高 2、深 4</text></svg>