<svg xmlns="http://www.w3.org/2000/svg" viewBox="0 0 480 320" font-family="'Noto Sans TC','PingFang TC','Microsoft JhengHei',sans-serif"><rect width="480" height="320" rx="10" fill="#faf6ec"/><polygon points="240.0,70.0 116.0,163.0 240.0,256.0" fill="#e6eef4" stroke="#33291e" stroke-width="2.5" stroke-linejoin="round"/><polygon points="240.0,70.0 364.0,163.0 240.0,256.0" fill="#f6e8e1" stroke="#33291e" stroke-width="2.5" stroke-linejoin="round"/><line x1="240.0" y1="70.0" x2="240.0" y2="256.0" stroke="#33291e" stroke-width="2.5"  stroke-linecap="round"/><line x1="181.6" y1="121.3" x2="174.4" y2="111.7" stroke="#33291e" stroke-width="1.8"  stroke-linecap="round"/><line x1="305.6" y1="111.7" x2="298.4" y2="121.3" stroke="#33291e" stroke-width="1.8"  stroke-linecap="round"/><line x1="179.6" y1="203.2" x2="172.4" y2="212.8" stroke="#33291e" stroke-width="1.8"  stroke-linecap="round"/><line x1="183.6" y1="206.2" x2="176.4" y2="215.8" stroke="#33291e" stroke-width="1.8"  stroke-linecap="round"/><line x1="307.6" y1="212.8" x2="300.4" y2="203.2" stroke="#33291e" stroke-width="1.8"  stroke-linecap="round"/><line x1="303.6" y1="215.8" x2="296.4" y2="206.2" stroke="#33291e" stroke-width="1.8"  stroke-linecap="round"/><circle cx="240.0" cy="70.0" r="4" fill="#33291e"/><circle cx="240.0" cy="256.0" r="4" fill="#33291e"/><circle cx="116.0" cy="163.0" r="4" fill="#33291e"/><circle cx="364.0" cy="163.0" r="4" fill="#33291e"/><text x="240.0" y="58.0" font-size="15" fill="#33291e" text-anchor="middle" font-weight="bold">A</text><text x="240.0" y="278.0" font-size="15" fill="#33291e" text-anchor="middle" font-weight="bold">C</text><text x="100.0" y="168.0" font-size="15" fill="#33291e" text-anchor="middle" font-weight="bold">B</text><text x="380.0" y="168.0" font-size="15" fill="#33291e" text-anchor="middle" font-weight="bold">D</text><text x="240.0" y="304.0" font-size="15" fill="#33291e" text-anchor="middle" font-weight="bold">共用 AC，AB=AD、BC=DC（風箏形）</text></svg>