<svg xmlns="http://www.w3.org/2000/svg" viewBox="0 0 480 320" font-family="'Noto Sans TC','PingFang TC','Microsoft JhengHei',sans-serif"><rect width="480" height="320" rx="10" fill="#faf6ec"/><polygon points="60.0,210.0 210.0,210.0 150.0,96.0" fill="#e6eef4" stroke="#33291e" stroke-width="2.5" stroke-linejoin="round"/><polygon points="280.0,210.0 430.0,210.0 370.0,96.0" fill="#f6e8e1" stroke="#33291e" stroke-width="2.5" stroke-linejoin="round"/><line x1="135.0" y1="204.0" x2="135.0" y2="216.0" stroke="#33291e" stroke-width="1.8"  stroke-linecap="round"/><line x1="175.9" y1="158.0" x2="186.5" y2="152.4" stroke="#33291e" stroke-width="1.8"  stroke-linecap="round"/><line x1="173.5" y1="153.6" x2="184.1" y2="148.0" stroke="#33291e" stroke-width="1.8"  stroke-linecap="round"/><line x1="112.8" y1="152.8" x2="103.4" y2="145.4" stroke="#33291e" stroke-width="1.8"  stroke-linecap="round"/><line x1="109.7" y1="156.7" x2="100.3" y2="149.3" stroke="#33291e" stroke-width="1.8"  stroke-linecap="round"/><line x1="106.6" y1="160.6" x2="97.2" y2="153.2" stroke="#33291e" stroke-width="1.8"  stroke-linecap="round"/><line x1="355.0" y1="204.0" x2="355.0" y2="216.0" stroke="#33291e" stroke-width="1.8"  stroke-linecap="round"/><line x1="395.9" y1="158.0" x2="406.5" y2="152.4" stroke="#33291e" stroke-width="1.8"  stroke-linecap="round"/><line x1="393.5" y1="153.6" x2="404.1" y2="148.0" stroke="#33291e" stroke-width="1.8"  stroke-linecap="round"/><line x1="332.8" y1="152.8" x2="323.4" y2="145.4" stroke="#33291e" stroke-width="1.8"  stroke-linecap="round"/><line x1="329.7" y1="156.7" x2="320.3" y2="149.3" stroke="#33291e" stroke-width="1.8"  stroke-linecap="round"/><line x1="326.6" y1="160.6" x2="317.2" y2="153.2" stroke="#33291e" stroke-width="1.8"  stroke-linecap="round"/><text x="46.5" y="221.4" font-size="14" fill="#33291e" text-anchor="middle" font-weight="bold">A</text><text x="223.2" y="222.2" font-size="14" fill="#33291e" text-anchor="middle" font-weight="bold">B</text><text x="152.0" y="86.1" font-size="14" fill="#33291e" text-anchor="middle" font-weight="bold">C</text><text x="266.5" y="221.4" font-size="14" fill="#33291e" text-anchor="middle" font-weight="bold">D</text><text x="443.2" y="222.2" font-size="14" fill="#33291e" text-anchor="middle" font-weight="bold">E</text><text x="372.0" y="86.1" font-size="14" fill="#33291e" text-anchor="middle" font-weight="bold">F</text><text x="240.0" y="304.0" font-size="15" fill="#33291e" text-anchor="middle" font-weight="bold">三組對應邊分別相等（SSS？）</text></svg>