<svg xmlns="http://www.w3.org/2000/svg" viewBox="0 0 480 320" font-family="'Noto Sans TC','PingFang TC','Microsoft JhengHei',sans-serif"><rect width="480" height="320" rx="10" fill="#faf6ec"/><polygon points="60.0,210.0 210.0,210.0 150.0,96.0" fill="#e6eef4" stroke="#33291e" stroke-width="2.5" stroke-linejoin="round"/><polygon points="280.0,210.0 430.0,210.0 370.0,96.0" fill="#f6e8e1" stroke="#33291e" stroke-width="2.5" stroke-linejoin="round"/><line x1="135.0" y1="204.0" x2="135.0" y2="216.0" stroke="#33291e" stroke-width="1.8"  stroke-linecap="round"/><line x1="98.7" y1="151.2" x2="108.2" y2="158.7" stroke="#33291e" stroke-width="1.8"  stroke-linecap="round"/><line x1="101.8" y1="147.3" x2="111.3" y2="154.8" stroke="#33291e" stroke-width="1.8"  stroke-linecap="round"/><path d="M 84.0 210.0 A 24 24 0 0 0 74.9 191.2" fill="none" stroke="#b5451d" stroke-width="1.8"/><line x1="355.0" y1="204.0" x2="355.0" y2="216.0" stroke="#33291e" stroke-width="1.8"  stroke-linecap="round"/><line x1="318.7" y1="151.2" x2="328.2" y2="158.7" stroke="#33291e" stroke-width="1.8"  stroke-linecap="round"/><line x1="321.8" y1="147.3" x2="331.3" y2="154.8" stroke="#33291e" stroke-width="1.8"  stroke-linecap="round"/><path d="M 304.0 210.0 A 24 24 0 0 0 294.9 191.2" fill="none" stroke="#b5451d" stroke-width="1.8"/><text x="46.5" y="221.4" font-size="14" fill="#33291e" text-anchor="middle" font-weight="bold">A</text><text x="223.2" y="222.2" font-size="14" fill="#33291e" text-anchor="middle" font-weight="bold">B</text><text x="152.0" y="86.1" font-size="14" fill="#33291e" text-anchor="middle" font-weight="bold">C</text><text x="266.5" y="221.4" font-size="14" fill="#33291e" text-anchor="middle" font-weight="bold">D</text><text x="443.2" y="222.2" font-size="14" fill="#33291e" text-anchor="middle" font-weight="bold">E</text><text x="372.0" y="86.1" font-size="14" fill="#33291e" text-anchor="middle" font-weight="bold">F</text><text x="240.0" y="304.0" font-size="15" fill="#33291e" text-anchor="middle" font-weight="bold">兩邊及其夾角分別相等（SAS？）</text></svg>