<svg xmlns="http://www.w3.org/2000/svg" viewBox="0 0 480 320" font-family="'Noto Sans TC','PingFang TC','Microsoft JhengHei',sans-serif"><rect width="480" height="320" rx="10" fill="#faf6ec"/><polygon points="70.0,210.0 70.0,100.0 200.0,210.0" fill="#e6eef4" stroke="#33291e" stroke-width="2.5" stroke-linejoin="round"/><polygon points="300.0,210.0 300.0,100.0 430.0,210.0" fill="#f6e8e1" stroke="#33291e" stroke-width="2.5" stroke-linejoin="round"/><path d="M 70.0 197.0 L 83.0 197.0 L 83.0 210.0" fill="none" stroke="#33291e" stroke-width="1.5"/><line x1="64.0" y1="157.5" x2="76.0" y2="157.5" stroke="#33291e" stroke-width="1.8"  stroke-linecap="round"/><line x1="64.0" y1="152.5" x2="76.0" y2="152.5" stroke="#33291e" stroke-width="1.8"  stroke-linecap="round"/><line x1="138.9" y1="150.4" x2="131.1" y2="159.6" stroke="#b5451d" stroke-width="1.8"  stroke-linecap="round"/><path d="M 300.0 197.0 L 313.0 197.0 L 313.0 210.0" fill="none" stroke="#33291e" stroke-width="1.5"/><line x1="294.0" y1="157.5" x2="306.0" y2="157.5" stroke="#33291e" stroke-width="1.8"  stroke-linecap="round"/><line x1="294.0" y1="152.5" x2="306.0" y2="152.5" stroke="#33291e" stroke-width="1.8"  stroke-linecap="round"/><line x1="368.9" y1="150.4" x2="361.1" y2="159.6" stroke="#b5451d" stroke-width="1.8"  stroke-linecap="round"/><text x="58.5" y="224.7" font-size="14" fill="#33291e" text-anchor="middle" font-weight="bold">A</text><text x="62.4" y="92.1" font-size="14" fill="#33291e" text-anchor="middle" font-weight="bold">B</text><text x="213.8" y="220.8" font-size="14" fill="#33291e" text-anchor="middle" font-weight="bold">C</text><text x="288.5" y="224.7" font-size="14" fill="#33291e" text-anchor="middle" font-weight="bold">D</text><text x="292.4" y="92.1" font-size="14" fill="#33291e" text-anchor="middle" font-weight="bold">E</text><text x="443.8" y="220.8" font-size="14" fill="#33291e" text-anchor="middle" font-weight="bold">F</text><text x="240.0" y="304.0" font-size="15" fill="#33291e" text-anchor="middle" font-weight="bold">直角三角形：斜邊與一股相等（RHS？）</text></svg>