<svg xmlns="http://www.w3.org/2000/svg" viewBox="0 0 480 320" font-family="'Noto Sans TC','PingFang TC','Microsoft JhengHei',sans-serif"><rect width="480" height="320" rx="10" fill="#faf6ec"/><polygon points="372.0,168.0 240.0,78.0 240.0,258.0" fill="#e6eef4" stroke="#33291e" stroke-width="2.5" stroke-linejoin="round"/><polygon points="108.0,168.0 240.0,78.0 240.0,258.0" fill="#f6e8e1" stroke="#33291e" stroke-width="2.5" stroke-linejoin="round"/><line x1="240.0" y1="78.0" x2="240.0" y2="258.0" stroke="#33291e" stroke-width="2.5"  stroke-linecap="round"/><path d="M 261.5 92.6 A 26 26 0 0 1 240.0 104.0" fill="none" stroke="#b5451d" stroke-width="1.8"/><path d="M 223.5 89.3 A 20 20 0 0 0 240.0 98.0" fill="none" stroke="#b5451d" stroke-width="1.8"/><path d="M 261.5 243.4 A 26 26 0 0 0 240.0 232.0" fill="none" stroke="#2f6f9f" stroke-width="1.8"/><path d="M 223.5 246.7 A 20 20 0 0 1 240.0 238.0" fill="none" stroke="#2f6f9f" stroke-width="1.8"/><circle cx="240.0" cy="78.0" r="4" fill="#33291e"/><circle cx="240.0" cy="258.0" r="4" fill="#33291e"/><circle cx="372.0" cy="168.0" r="4" fill="#33291e"/><circle cx="108.0" cy="168.0" r="4" fill="#33291e"/><text x="240.0" y="66.0" font-size="16" fill="#33291e" text-anchor="middle" font-weight="normal">B</text><text x="240.0" y="280.0" font-size="16" fill="#33291e" text-anchor="middle" font-weight="normal">C</text><text x="388.0" y="173.0" font-size="16" fill="#33291e" text-anchor="middle" font-weight="normal">A</text><text x="92.0" y="173.0" font-size="16" fill="#33291e" text-anchor="middle" font-weight="normal">D</text><text x="240.0" y="304.0" font-size="15" fill="#33291e" text-anchor="middle" font-weight="bold">共用 BC，∠ABC=∠DBC、∠ACB=∠DCB</text></svg>