<svg xmlns="http://www.w3.org/2000/svg" viewBox="0 0 480 320" font-family="'Noto Sans TC','PingFang TC','Microsoft JhengHei',sans-serif"><rect width="480" height="320" rx="10" fill="#faf6ec"/><polygon points="112.0,150.0 240.0,74.0 240.0,256.0" fill="#e6eef4" stroke="#33291e" stroke-width="2.5" stroke-linejoin="round"/><polygon points="368.0,150.0 240.0,74.0 240.0,256.0" fill="#f6e8e1" stroke="#33291e" stroke-width="2.5" stroke-linejoin="round"/><line x1="240.0" y1="74.0" x2="240.0" y2="256.0" stroke="#33291e" stroke-width="2.5"  stroke-linecap="round"/><line x1="172.9" y1="106.8" x2="179.1" y2="117.2" stroke="#33291e" stroke-width="1.8"  stroke-linecap="round"/><line x1="300.9" y1="117.2" x2="307.1" y2="106.8" stroke="#33291e" stroke-width="1.8"  stroke-linecap="round"/><path d="M 217.6 87.3 A 26 26 0 0 0 240.0 100.0" fill="none" stroke="#b5451d" stroke-width="1.8"/><path d="M 257.2 84.2 A 20 20 0 0 1 240.0 94.0" fill="none" stroke="#b5451d" stroke-width="1.8"/><circle cx="240.0" cy="74.0" r="4" fill="#33291e"/><circle cx="240.0" cy="256.0" r="4" fill="#33291e"/><circle cx="112.0" cy="150.0" r="4" fill="#33291e"/><circle cx="368.0" cy="150.0" r="4" fill="#33291e"/><text x="240.0" y="62.0" font-size="16" fill="#33291e" text-anchor="middle" font-weight="normal">Q</text><text x="240.0" y="278.0" font-size="16" fill="#33291e" text-anchor="middle" font-weight="normal">R</text><text x="96.0" y="155.0" font-size="16" fill="#33291e" text-anchor="middle" font-weight="normal">P</text><text x="384.0" y="155.0" font-size="16" fill="#33291e" text-anchor="middle" font-weight="normal">S</text><text x="240.0" y="304.0" font-size="15" fill="#33291e" text-anchor="middle" font-weight="bold">共用 QR，PQ=SQ、∠PQR=∠SQR</text></svg>